<?xml version="1.0" encoding="utf-8"?>
<!-- Generator: Adobe Illustrator 16.0.0, SVG Export Plug-In . SVG Version: 6.00 Build 0)  -->
<!DOCTYPE svg PUBLIC "-//W3C//DTD SVG 1.0//EN" "http://www.w3.org/TR/2001/REC-SVG-20010904/DTD/svg10.dtd">
<svg version="1.0" id="Jeu_de_plateau_économique_et_écologique"
	 xmlns="http://www.w3.org/2000/svg" xmlns:xlink="http://www.w3.org/1999/xlink" x="0px" y="0px" width="503.236px"
	 height="503.236px" viewBox="0 0 503.236 503.236" enable-background="new 0 0 503.236 503.236" xml:space="preserve">
<g>
	<path fill="#FFFFFF" d="M114.97,239.932c-0.813-1.6-1.792-3.042-2.942-4.328c-1.149-1.287-2.449-2.416-3.904-3.385
		c-1.455-0.967-2.998-1.73-4.631-2.292c-1.631-0.56-3.342-0.907-5.126-1.04c-1.788-0.129-3.592-0.014-5.408,0.352
		c-1.815,0.365-3.517,0.954-5.104,1.766c-1.589,0.811-3.031,1.79-4.327,2.941c-1.297,1.148-2.43,2.45-3.397,3.905
		c-0.969,1.458-1.735,3.002-2.305,4.634c-0.572,1.637-0.924,3.345-1.053,5.133c-0.131,1.787-0.016,3.587,0.35,5.404
		c0.364,1.818,0.954,3.52,1.764,5.107c0.812,1.588,1.797,3.028,2.956,4.322c1.159,1.297,2.464,2.428,3.921,3.396
		c1.454,0.968,3.004,1.733,4.645,2.304c1.644,0.569,3.355,0.921,5.133,1.053c1.779,0.131,3.575,0.018,5.392-0.346
		c1.816-0.369,3.522-0.959,5.119-1.771c1.599-0.81,3.04-1.796,4.325-2.953c1.285-1.159,2.414-2.465,3.381-3.918
		c0.968-1.457,1.73-3.005,2.289-4.645c0.56-1.642,0.906-3.35,1.039-5.129c0.133-1.776,0.018-3.576-0.347-5.393
		C116.371,243.232,115.782,241.527,114.97,239.932z M109.11,251.491c-0.346,1.598-0.955,3.058-1.828,4.386
		c-0.872,1.323-1.987,2.453-3.346,3.396c-1.358,0.939-2.876,1.579-4.55,1.916c-1.691,0.34-3.34,0.339-4.947-0.005
		s-3.072-0.957-4.398-1.838c-1.328-0.885-2.459-1.994-3.395-3.335c-0.939-1.339-1.575-2.848-1.912-4.521
		c-0.337-1.674-0.334-3.319,0.008-4.936c0.342-1.615,0.954-3.082,1.838-4.398c0.886-1.32,2-2.445,3.35-3.385
		c1.351-0.939,2.868-1.579,4.561-1.918c1.675-0.338,3.318-0.335,4.937,0.006c1.615,0.344,3.08,0.953,4.397,1.826
		c1.314,0.875,2.443,1.991,3.383,3.348c0.94,1.359,1.58,2.876,1.916,4.55C109.461,248.256,109.456,249.893,109.11,251.491z"/>
	<path fill="#FFFFFF" d="M133.246,261.49l-1.542-7.668l7.667-1.541c2.098-0.422,4.002-1.222,5.701-2.398
		c1.699-1.175,3.105-2.598,4.214-4.267c1.11-1.668,1.878-3.515,2.305-5.534c0.425-2.024,0.429-4.084,0.007-6.186
		c-0.284-1.408-0.739-2.725-1.363-3.949c-0.629-1.227-1.392-2.346-2.287-3.348c-0.897-1.008-1.908-1.885-3.031-2.631
		c-1.122-0.748-2.317-1.342-3.583-1.781c-1.267-0.44-2.583-0.712-3.957-0.814c-1.374-0.104-2.763-0.015-4.169,0.268l-15.334,3.086
		l7.708,38.306L133.246,261.49z M134.749,229.309c1.051-0.213,2.079-0.21,3.084,0.006c1.007,0.213,1.928,0.597,2.762,1.152
		c0.834,0.555,1.547,1.26,2.134,2.113c0.591,0.855,0.991,1.807,1.202,2.857c0.212,1.051,0.212,2.086-0.003,3.1
		c-0.211,1.016-0.596,1.939-1.15,2.775c-0.556,0.835-1.256,1.543-2.1,2.132c-0.846,0.587-1.795,0.985-2.845,1.196l-7.665,1.543
		l-3.088-15.332L134.749,229.309z"/>
	<polygon fill="#FFFFFF" points="160.707,255.965 186.965,250.682 185.424,243.016 166.83,246.756 165.294,239.117 177.875,236.584 
		176.334,228.918 163.752,231.449 162.209,223.783 180.802,220.042 179.26,212.377 152.998,217.66 	"/>
	<polygon fill="#FFFFFF" points="168.584,200.35 162.14,209.344 165.956,212.717 174.089,205.051 	"/>
	<path fill="#FFFFFF" d="M211.915,245.66l8.147-1.639l-6.264-9.162c0.965-0.917,1.798-1.937,2.498-3.059
		c0.702-1.125,1.245-2.309,1.635-3.553c0.387-1.246,0.621-2.525,0.701-3.838c0.077-1.313-0.016-2.629-0.281-3.945
		c-0.284-1.408-0.738-2.725-1.363-3.95c-0.626-1.228-1.392-2.345-2.287-3.351c-0.898-1.004-1.904-1.881-3.03-2.627
		c-1.124-0.746-2.315-1.341-3.583-1.781c-1.264-0.441-2.583-0.712-3.957-0.814c-1.372-0.104-2.764-0.015-4.171,0.268l-15.334,3.086
		l7.708,38.305l7.666-1.54l-1.542-7.669l8.565-1.775L211.915,245.66z M196.922,232.752l-3.086-15.332l7.668-1.543
		c1.051-0.212,2.079-0.211,3.086,0.004c1.005,0.215,1.926,0.6,2.762,1.154c0.832,0.557,1.545,1.259,2.133,2.113
		c0.589,0.856,0.99,1.808,1.201,2.855c0.213,1.055,0.21,2.088-0.001,3.102c-0.213,1.016-0.599,1.941-1.151,2.776
		c-0.554,0.834-1.256,1.542-2.099,2.132c-0.846,0.587-1.794,0.985-2.848,1.197L196.922,232.752z"/>
	<path fill="#FFFFFF" d="M250.543,237.889l7.666-1.541l-4.621-22.973c-0.428-2.119-1.23-4.029-2.404-5.729
		c-1.176-1.698-2.599-3.103-4.268-4.214c-1.668-1.108-3.513-1.877-5.537-2.303c-2.021-0.43-4.092-0.43-6.211-0.002
		c-2.119,0.426-4.029,1.227-5.729,2.404c-1.699,1.174-3.1,2.595-4.201,4.263c-1.101,1.667-1.863,3.512-2.291,5.534
		c-0.428,2.021-0.428,4.092,0,6.211l4.621,22.975l7.641-1.539l-1.544-7.665l15.334-3.087L250.543,237.889z M232.127,225.668
		l-1.54-7.665c-0.213-1.052-0.21-2.082,0.001-3.101c0.213-1.016,0.597-1.939,1.152-2.774c0.553-0.835,1.258-1.545,2.112-2.134
		c0.854-0.59,1.807-0.989,2.857-1.202c1.053-0.212,2.085-0.208,3.099,0.003c1.019,0.213,1.94,0.594,2.776,1.15
		c0.834,0.555,1.546,1.26,2.134,2.114c0.589,0.856,0.989,1.805,1.2,2.856l1.542,7.668L232.127,225.668z"/>
	<polygon fill="#FFFFFF" points="273.627,201.365 285.113,199.055 283.571,191.387 252.932,197.551 254.473,205.219 
		265.986,202.902 272.151,233.541 279.793,232.003 	"/>
	
		<rect x="275.781" y="205.042" transform="matrix(0.1972 0.9804 -0.9804 0.1972 441.9149 -121.7788)" fill="#FFFFFF" width="39.073" height="7.821"/>
	<path fill="#FFFFFF" d="M337.46,218.442c1.287-1.159,2.413-2.463,3.38-3.919c0.969-1.455,1.731-3.002,2.292-4.645
		c0.558-1.641,0.905-3.349,1.037-5.128c0.133-1.778,0.019-3.574-0.347-5.391c-0.367-1.817-0.954-3.521-1.769-5.12
		c-0.811-1.599-1.792-3.041-2.94-4.329c-1.149-1.286-2.45-2.413-3.905-3.382c-1.455-0.968-2.997-1.733-4.631-2.293
		c-1.632-0.562-3.342-0.906-5.128-1.039c-1.788-0.129-3.589-0.016-5.405,0.351s-3.517,0.954-5.106,1.765
		c-1.586,0.812-3.03,1.791-4.328,2.94c-1.297,1.151-2.43,2.454-3.396,3.909c-0.969,1.456-1.735,3.001-2.307,4.632
		c-0.571,1.636-0.923,3.345-1.051,5.132c-0.132,1.787-0.015,3.588,0.35,5.404c0.366,1.816,0.955,3.519,1.765,5.106
		c0.811,1.591,1.795,3.03,2.955,4.325c1.158,1.295,2.465,2.428,3.921,3.395c1.456,0.969,3.003,1.733,4.646,2.305
		c1.643,0.568,3.354,0.918,5.133,1.051c1.777,0.132,3.574,0.018,5.391-0.347c1.816-0.366,3.522-0.958,5.121-1.769
		C334.732,220.584,336.175,219.601,337.46,218.442z M331.021,213.582c-1.358,0.939-2.875,1.579-4.549,1.916
		c-1.693,0.34-3.341,0.34-4.949-0.006c-1.607-0.344-3.073-0.957-4.399-1.839c-1.327-0.883-2.456-1.993-3.395-3.333
		c-0.936-1.34-1.572-2.848-1.911-4.521c-0.335-1.674-0.334-3.318,0.009-4.936c0.343-1.615,0.954-3.081,1.838-4.398
		c0.886-1.318,1.999-2.445,3.349-3.384c1.352-0.939,2.871-1.577,4.564-1.919c1.672-0.338,3.318-0.336,4.934,0.006
		c1.615,0.344,3.082,0.951,4.396,1.826c1.315,0.875,2.443,1.992,3.382,3.349c0.942,1.359,1.581,2.876,1.919,4.548
		c0.337,1.676,0.333,3.313-0.014,4.908c-0.346,1.6-0.954,3.061-1.828,4.386C333.494,211.508,332.379,212.641,331.021,213.582z"/>
	<polygon fill="#FFFFFF" points="344.957,179.035 352.666,217.344 360.331,215.801 355.259,190.582 375.103,212.826 
		383.305,211.177 375.597,172.871 367.931,174.414 373.011,199.658 353.158,177.386 	"/>
	<path fill="#FFFFFF" d="M237.48,288.115c0.811,1.585,1.794,3.027,2.955,4.324c1.16,1.297,2.467,2.426,3.922,3.396
		c1.453,0.967,3.001,1.733,4.645,2.302s3.354,0.92,5.133,1.051c1.777,0.133,3.574,0.018,5.391-0.347
		c1.817-0.366,3.524-0.955,5.121-1.768c1.596-0.812,3.038-1.797,4.323-2.954c1.287-1.157,2.415-2.463,3.382-3.918
		c0.969-1.456,1.73-3.003,2.289-4.643c0.562-1.642,0.906-3.353,1.038-5.132c0.134-1.776,0.019-3.573-0.346-5.39
		c-0.366-1.816-0.956-3.521-1.768-5.119c-0.813-1.598-1.792-3.04-2.941-4.328c-1.148-1.288-2.449-2.416-3.904-3.385
		c-1.457-0.967-2.999-1.729-4.632-2.29c-1.63-0.564-3.341-0.908-5.129-1.041c-1.786-0.13-3.587-0.013-5.403,0.353
		s-3.519,0.951-5.106,1.762c-1.59,0.812-3.032,1.791-4.33,2.941c-1.297,1.152-2.426,2.454-3.397,3.909
		c-0.965,1.455-1.733,3-2.305,4.631c-0.569,1.636-0.919,3.347-1.05,5.132c-0.133,1.789-0.016,3.591,0.351,5.407
		C236.082,284.824,236.67,286.524,237.48,288.115z M243.338,276.539c0.342-1.613,0.953-3.081,1.839-4.4
		c0.882-1.316,1.999-2.441,3.349-3.382c1.35-0.939,2.869-1.577,4.561-1.919c1.676-0.336,3.319-0.334,4.938,0.008
		c1.614,0.344,3.081,0.95,4.396,1.826c1.314,0.875,2.443,1.992,3.383,3.348c0.942,1.359,1.581,2.875,1.916,4.549
		c0.338,1.674,0.333,3.311-0.014,4.909c-0.345,1.599-0.954,3.06-1.826,4.384c-0.873,1.326-1.991,2.457-3.347,3.397
		c-1.359,0.938-2.876,1.578-4.55,1.915c-1.691,0.34-3.34,0.34-4.947-0.004c-1.608-0.346-3.074-0.955-4.401-1.841
		c-1.325-0.883-2.458-1.991-3.395-3.331c-0.936-1.342-1.573-2.85-1.909-4.521C242.992,279.801,242.997,278.156,243.338,276.539z"/>
	<path fill="#FFFFFF" d="M280.034,279.551c0.812,1.588,1.796,3.031,2.954,4.328c1.161,1.295,2.467,2.426,3.922,3.394
		s3.003,1.733,4.646,2.302c1.644,0.568,3.353,0.92,5.131,1.051c1.779,0.135,3.575,0.021,5.394-0.348
		c2.367-0.475,4.574-1.347,6.617-2.609c2.042-1.264,3.801-2.84,5.273-4.729l-5.403-5.863c-0.878,1.438-2.017,2.635-3.419,3.594
		c-1.4,0.957-2.938,1.604-4.612,1.941c-1.692,0.342-3.34,0.339-4.948-0.006c-1.606-0.342-3.072-0.953-4.398-1.838
		c-1.329-0.881-2.46-1.992-3.396-3.331c-0.936-1.343-1.572-2.848-1.91-4.522c-0.336-1.674-0.334-3.318,0.006-4.936
		c0.343-1.615,0.956-3.083,1.841-4.399c0.884-1.316,1.999-2.444,3.349-3.383c1.352-0.941,2.871-1.581,4.562-1.921
		c1.675-0.337,3.343-0.334,5.007,0.009c1.66,0.343,3.176,1.005,4.541,1.989l2.716-7.493c-2.092-1.19-4.324-1.97-6.696-2.337
		c-2.37-0.365-4.742-0.311-7.108,0.166c-1.817,0.366-3.521,0.955-5.108,1.766c-1.588,0.809-3.028,1.793-4.325,2.955
		c-1.295,1.16-2.426,2.463-3.394,3.92c-0.966,1.455-1.734,3.002-2.303,4.647c-0.568,1.641-0.918,3.357-1.049,5.142
		c-0.131,1.789-0.015,3.591,0.351,5.407C278.637,276.263,279.225,277.963,280.034,279.551z"/>
	<polygon fill="#FFFFFF" points="320.628,239.354 324.447,242.725 332.576,235.059 327.072,230.355 	"/>
	<polygon fill="#FFFFFF" points="345.454,280.689 343.912,273.023 325.319,276.766 323.783,269.123 336.365,266.592 
		334.821,258.927 322.24,261.457 320.697,253.791 339.289,250.049 337.747,242.383 311.487,247.668 319.194,285.973 	"/>
	<path fill="#FFFFFF" d="M373.369,275.073l7.665-1.544l-4.621-22.971c-0.427-2.121-1.228-4.029-2.401-5.729
		c-1.177-1.7-2.6-3.106-4.268-4.213c-1.668-1.111-3.516-1.88-5.536-2.305c-2.023-0.428-4.091-0.43-6.213-0.004
		c-2.119,0.428-4.028,1.229-5.728,2.405c-1.701,1.175-3.102,2.597-4.201,4.263c-1.099,1.666-1.864,3.512-2.293,5.533
		c-0.425,2.022-0.427,4.093,0,6.212l4.621,22.973l7.641-1.538l-1.541-7.662l15.332-3.086L373.369,275.073z M354.955,262.851
		l-1.541-7.665c-0.212-1.053-0.212-2.084,0.003-3.102c0.211-1.014,0.594-1.939,1.149-2.773c0.554-0.834,1.258-1.545,2.113-2.134
		s1.807-0.991,2.857-1.202c1.051-0.21,2.085-0.21,3.101,0.003c1.015,0.212,1.94,0.597,2.772,1.151
		c0.836,0.554,1.547,1.26,2.137,2.113c0.59,0.856,0.988,1.808,1.199,2.858l1.543,7.665L354.955,262.851z"/>
	<polygon fill="#FFFFFF" points="418.328,266.027 410.62,227.722 402.951,229.264 408.032,254.507 388.18,232.237 379.979,233.887 
		387.688,272.191 395.354,270.648 390.281,245.434 410.126,267.676 	"/>
	<path fill="#FFFFFF" d="M359.246,318.881c3.247-4.883,6.181-9.969,8.772-15.2c-3.268-1.961-6.507-3.334-6.507-3.334
		c-0.001,0.003-0.003,0.006-0.004,0.009c-24.263-11.499-45.887-7.9-67.773,11.209c-13.001,11.351-28.275,16.861-41.895,15.121
		c-11.326-1.45-20.838-7.711-28.271-18.607c-16.602-24.344-38.249-33.803-64.337-28.113c-14.97,3.264-26.036,11.412-32.144,16.951
		c0,0,0-0.001-0.001-0.002c-1.399,1.215-2.627,2.462-3.557,3.468c-1.097,1.156-1.724,1.914-1.836,2.052l0.027,0.022
		c-0.003,0.004-0.012,0.015-0.012,0.015c10.611,22.1,27.063,40.991,47.571,54.632c23.276,15.478,49.606,22.883,75.663,22.883
		C289.312,379.986,332.889,358.517,359.246,318.881z M160.788,287.107c23.218-5.058,41.774,3.148,56.74,25.089
		c8.539,12.521,20.083,20.039,33.384,21.739c1.957,0.25,3.938,0.375,5.937,0.375c14.042,0,28.936-6.099,41.694-17.239
		c19.57-17.083,38.07-20.31,59.527-10.256c-1.543,2.725-3.175,5.404-4.912,8.017c-2.485,3.736-5.132,7.302-7.924,10.694
		c-13.037-5.678-32.457-7.316-55.051,12.664c-13.305,11.762-29.495,17.496-44.444,15.754c-13.019-1.525-24.4-8.723-32.912-20.814
		c-18.803-26.706-35.924-34.135-59.086-25.65c-4.837,1.773-10.599,5.289-15.641,8.756c-2.75-4.021-5.282-8.194-7.565-12.516
		C135.512,298.925,146.126,290.305,160.788,287.107z M173.33,351.014c-11.885-7.903-22.32-17.675-30.937-28.858
		c5.56-3.811,10.372-6.533,13.864-7.812c19.935-7.301,33.646-1.072,50.591,22.996c9.744,13.837,22.897,22.091,38.04,23.865
		c2.046,0.24,4.106,0.357,6.181,0.357c15.168,0,30.885-6.338,43.958-17.896c15.373-13.593,30.525-17.727,45.106-12.322
		C297.658,377.062,226.938,386.666,173.33,351.014z"/>
	<path fill="#FFFFFF" d="M137.147,171.188c6.727-10.117,14.642-18.979,23.435-26.535c0.408,9.151,2.692,25.218,12.983,36.365
		c7.233,7.836,17.095,11.842,29.313,11.906c0.095,0,0.189,0,0.283,0c20.452,0,25.959-11.844,30.818-22.302
		c2.824-6.075,5.49-11.813,10.947-15.116c3.974-2.408,8.768-3.705,13.844-5.077c6.996-1.892,14.229-3.849,19.734-8.999
		c7.702-7.206,10.134-14.808,10.706-20.42c9.584,3.461,18.907,8.106,27.762,13.995c11.04,7.341,20.831,16.253,29.104,26.489
		l5.686-4.596c-8.739-10.814-19.082-20.229-30.74-27.982c-62.914-41.836-148.131-24.689-189.965,38.222
		c-7.752,11.658-13.649,24.341-17.525,37.694l7.021,2.039C124.224,194.23,129.806,182.225,137.147,171.188z M273.511,136.092
		c-4.176,3.906-10.233,5.545-16.647,7.279c-5.343,1.443-10.866,2.939-15.723,5.879c-7.36,4.461-10.629,11.49-13.791,18.291
		c-4.69,10.092-8.397,18.07-24.182,18.07c-0.082,0-0.167,0-0.25,0c-10.098-0.053-18.158-3.26-23.96-9.529
		c-11.443-12.37-11.248-33.173-11.092-37.241c3.899-2.887,7.942-5.536,12.103-7.946c0.37,5.687,1.955,14.797,7.929,21.267
		c4.523,4.9,10.658,7.404,18.236,7.444c0.06,0,0.116,0,0.177,0c12.912,0,16.497-7.707,19.378-13.904
		c1.618-3.479,3.015-6.483,5.809-8.175c2.139-1.296,4.838-2.027,7.697-2.8c4.268-1.153,8.68-2.348,12.171-5.614
		c5.918-5.537,6.884-11.519,6.808-15.129c8.028,0.797,16.025,2.343,23.884,4.671C281.945,122.855,280.467,129.583,273.511,136.092z
		 M250.838,113.459c0.173,1.784,0.028,6.109-4.467,10.314c-2.163,2.025-5.525,2.934-9.084,3.896
		c-3.224,0.872-6.557,1.774-9.577,3.604c-4.698,2.845-6.798,7.361-8.649,11.346c-2.706,5.82-4.498,9.676-12.744,9.676
		c-0.047,0-0.096,0-0.144,0c-5.534-0.028-9.748-1.688-12.884-5.07c-5.957-6.43-6.165-17.204-6.097-20.223
		C206.906,117.193,228.862,112.531,250.838,113.459z"/>
	<path fill="#FFFFFF" d="M151.347,124.364c0.168,0.406,0.249,0.785,0.24,1.139c-0.01,0.353-0.105,0.684-0.289,0.993
		c-0.184,0.31-0.443,0.598-0.777,0.862c-0.253,0.199-0.473,0.336-0.658,0.409c-0.186,0.072-0.324,0.145-0.415,0.217
		c-0.112,0.088-0.173,0.18-0.184,0.275c-0.011,0.095,0.012,0.189,0.07,0.284c0.102,0.15,0.203,0.303,0.302,0.459
		c0.099,0.157,0.202,0.313,0.308,0.467c0.634-0.271,1.202-0.604,1.704-1.001c0.552-0.437,0.971-0.912,1.256-1.426
		c0.286-0.513,0.443-1.052,0.472-1.615c0.029-0.562-0.072-1.143-0.303-1.742c-0.231-0.6-0.588-1.203-1.068-1.811l-5.638-7.131
		l-1.474,1.167l5.661,7.16C150.914,123.526,151.179,123.957,151.347,124.364z"/>
	<polygon fill="#FFFFFF" points="164.625,118.787 163.762,117.522 158.262,121.325 155.568,117.428 160.016,114.352 
		159.178,113.141 154.73,116.216 152.107,112.422 157.599,108.625 156.729,107.366 149.69,112.231 157.586,123.652 	"/>
	<path fill="#FFFFFF" d="M165.266,114.562c0.562,0.467,1.175,0.8,1.838,0.996c0.665,0.197,1.364,0.248,2.099,0.154
		c0.735-0.095,1.473-0.354,2.212-0.777c0.74-0.424,1.336-0.93,1.789-1.516c0.453-0.588,0.761-1.218,0.923-1.889
		c0.163-0.669,0.186-1.365,0.066-2.086c-0.119-0.721-0.378-1.429-0.776-2.123l-4.198-7.323l-1.622,0.931l4.197,7.321
		c0.289,0.505,0.483,1.009,0.581,1.511c0.098,0.502,0.098,0.982,0,1.44c-0.098,0.46-0.295,0.886-0.591,1.277
		c-0.296,0.394-0.693,0.732-1.192,1.019s-0.995,0.457-1.488,0.513s-0.962,0.01-1.408-0.138c-0.445-0.146-0.86-0.389-1.243-0.728
		c-0.384-0.338-0.721-0.76-1.01-1.264l-4.192-7.313l-1.623,0.929l4.197,7.322C164.224,113.515,164.704,114.095,165.266,114.562z"/>
	<path fill="#FFFFFF" d="M188.189,106.5c0.944-0.389,1.742-0.898,2.395-1.527s1.141-1.338,1.464-2.13
		c0.324-0.789,0.476-1.643,0.455-2.556c-0.02-0.914-0.229-1.852-0.625-2.813c-0.396-0.96-0.91-1.773-1.54-2.436
		c-0.629-0.663-1.338-1.162-2.126-1.498c-0.788-0.334-1.636-0.495-2.542-0.48c-0.906,0.014-1.832,0.214-2.775,0.604l-4.792,1.976
		l5.294,12.837L188.189,106.5z M183.476,95.069c0.693-0.286,1.367-0.431,2.021-0.436c0.655-0.004,1.269,0.127,1.84,0.395
		s1.093,0.668,1.564,1.2c0.471,0.532,0.869,1.192,1.194,1.98s0.508,1.538,0.549,2.247c0.042,0.711-0.046,1.359-0.265,1.95
		c-0.218,0.588-0.561,1.113-1.029,1.571c-0.468,0.458-1.048,0.83-1.741,1.116l-3.055,1.26l-4.134-10.024L183.476,95.069z"/>
	<polygon fill="#FFFFFF" points="205.08,100.562 204.629,99.099 198.253,101.11 196.827,96.593 201.983,94.965 201.54,93.561 
		196.383,95.188 194.996,90.789 201.362,88.78 200.902,87.319 192.742,89.895 196.921,103.137 	"/>
	<path fill="#FFFFFF" d="M214.145,98.398l-1.08-5.08l2.18-0.464c0.822-0.175,1.524-0.435,2.108-0.78
		c0.583-0.346,1.048-0.753,1.395-1.223c0.346-0.47,0.573-0.99,0.684-1.562c0.109-0.571,0.097-1.174-0.038-1.806
		c-0.135-0.638-0.361-1.194-0.676-1.669c-0.316-0.475-0.721-0.85-1.216-1.128c-0.494-0.277-1.081-0.45-1.758-0.513
		c-0.678-0.065-1.446-0.005-2.305,0.177l-4.01,0.853l2.887,13.583L214.145,98.398z M213.746,85.803
		c1.087-0.231,1.949-0.161,2.586,0.213c0.638,0.373,1.048,0.993,1.232,1.858c0.088,0.417,0.1,0.813,0.036,1.191
		c-0.065,0.377-0.209,0.72-0.431,1.027s-0.519,0.574-0.891,0.798c-0.372,0.224-0.819,0.393-1.344,0.504l-2.18,0.464l-1.188-5.593
		L213.746,85.803z"/>
	<polygon fill="#FFFFFF" points="231.407,95.616 231.205,94.05 225.247,94.819 223.671,82.614 221.816,82.854 223.594,96.625 	"/>
	<path fill="#FFFFFF" d="M234.276,95.229c0.105-0.096,0.175-0.203,0.208-0.321l1.139-3.409l6.223-0.294l1.455,3.288
		c0.058,0.126,0.14,0.229,0.248,0.308c0.107,0.079,0.245,0.115,0.412,0.107l1.452-0.068l-6.2-13.609l-1.897,0.09l-4.892,14.132
		l1.452-0.068C234.037,95.374,234.17,95.324,234.276,95.229z M237.994,84.382c0.125-0.354,0.244-0.798,0.355-1.326
		c0.076,0.249,0.155,0.481,0.236,0.702c0.081,0.219,0.158,0.411,0.23,0.575l2.444,5.541l-5.179,0.243L237.994,84.382z"/>
	<polygon fill="#FFFFFF" points="249.614,95.022 251.483,95.079 251.863,82.779 256.357,82.918 256.406,81.34 245.54,81.004 
		245.491,82.583 249.994,82.722 	"/>
	<polygon fill="#FFFFFF" points="266.657,94.809 260.009,94.096 260.514,89.385 265.89,89.96 266.047,88.495 260.67,87.919 
		261.162,83.333 267.8,84.045 267.963,82.522 259.456,81.61 257.977,95.418 266.484,96.33 	"/>
	<path fill="#FFFFFF" d="M268.654,96.638c0.159,0.029,0.301,0.011,0.425-0.058c0.125-0.068,0.217-0.155,0.277-0.264l1.9-3.052
		l6.122,1.161l0.651,3.534c0.026,0.137,0.083,0.257,0.168,0.358c0.086,0.102,0.211,0.169,0.376,0.199l1.428,0.271l-2.869-14.677
		l-1.867-0.354l-8.041,12.608L268.654,96.638z M275.215,86.895c0.205-0.317,0.422-0.72,0.653-1.208
		c0.017,0.26,0.039,0.505,0.067,0.737s0.059,0.438,0.091,0.614l1.09,5.956l-5.093-0.966L275.215,86.895z"/>
	<path fill="#FFFFFF" d="M284.273,99.718c0.582,0.461,1.283,0.808,2.104,1.038c0.82,0.232,1.599,0.306,2.334,0.219
		c0.736-0.089,1.401-0.308,1.995-0.659c0.593-0.354,1.105-0.824,1.538-1.414c0.432-0.589,0.757-1.27,0.975-2.039l2.298-8.123
		l-1.8-0.507l-2.297,8.12c-0.158,0.559-0.382,1.05-0.673,1.471c-0.29,0.421-0.634,0.757-1.03,1.008
		c-0.396,0.251-0.839,0.406-1.326,0.471c-0.488,0.063-1.008,0.017-1.562-0.14c-0.553-0.157-1.022-0.393-1.407-0.705
		c-0.384-0.313-0.68-0.682-0.886-1.102c-0.207-0.422-0.324-0.888-0.35-1.398c-0.027-0.511,0.039-1.047,0.197-1.606l2.296-8.11
		l-1.8-0.51l-2.298,8.121c-0.218,0.771-0.298,1.521-0.238,2.248c0.059,0.729,0.25,1.398,0.574,2.011
		C283.239,98.723,283.692,99.259,284.273,99.718z"/>
	<polygon fill="#FFFFFF" points="146.348,363.117 151.459,367.205 152.398,366.034 145.847,360.795 137.344,371.426 
		143.894,376.665 144.839,375.498 139.721,371.404 142.623,367.776 146.762,371.088 147.664,369.96 143.525,366.649 	"/>
	<path fill="#FFFFFF" d="M150.39,362.81l4.116-0.187l-1.492-1.193c-0.162-0.131-0.298-0.218-0.404-0.264
		c-0.106-0.044-0.245-0.045-0.416-0.004l-3.339,0.663l0.949,0.759c0.099,0.08,0.188,0.14,0.27,0.18
		C150.155,362.805,150.26,362.819,150.39,362.81z"/>
	<path fill="#FFFFFF" d="M159.662,373.583c0.133,0.276,0.232,0.512,0.298,0.707c0.066,0.195,0.146,0.324,0.24,0.39
		c0.084,0.057,0.161,0.086,0.234,0.086s0.144-0.016,0.211-0.046l0.979-0.354c-0.164-0.757-0.463-1.474-0.897-2.149
		c-0.436-0.674-1.052-1.286-1.852-1.834c-0.815-0.56-1.655-0.932-2.52-1.114c-0.866-0.184-1.714-0.188-2.545-0.012
		c-0.83,0.175-1.62,0.523-2.371,1.045c-0.75,0.523-1.416,1.207-1.996,2.053c-0.58,0.845-0.984,1.708-1.212,2.59
		c-0.229,0.88-0.283,1.732-0.164,2.556c0.119,0.821,0.411,1.599,0.877,2.329c0.467,0.731,1.101,1.373,1.905,1.925
		c0.93,0.639,1.824,1.034,2.685,1.187c0.859,0.151,1.701,0.119,2.526-0.098l-0.157-1.064c-0.016-0.111-0.066-0.195-0.149-0.253
		c-0.089-0.062-0.205-0.082-0.347-0.065c-0.315,0.045-0.613,0.064-0.898,0.058c-0.283-0.006-0.567-0.045-0.852-0.118
		c-0.285-0.072-0.575-0.181-0.871-0.326c-0.295-0.146-0.61-0.333-0.944-0.563c-0.549-0.376-0.991-0.825-1.327-1.349
		c-0.337-0.523-0.548-1.092-0.636-1.709s-0.044-1.27,0.132-1.955c0.176-0.687,0.503-1.38,0.983-2.079
		c0.473-0.689,0.994-1.241,1.564-1.657c0.569-0.416,1.158-0.695,1.768-0.838c0.608-0.143,1.222-0.149,1.841-0.021
		c0.618,0.129,1.218,0.393,1.797,0.79c0.48,0.33,0.851,0.658,1.109,0.986C159.332,373.006,159.528,373.308,159.662,373.583z"/>
	<path fill="#FFFFFF" d="M172.521,383.379c0.135-0.901,0.097-1.766-0.112-2.593c-0.212-0.826-0.594-1.592-1.146-2.295
		c-0.554-0.702-1.267-1.299-2.14-1.789c-0.872-0.49-1.751-0.788-2.635-0.893c-0.886-0.105-1.736-0.033-2.553,0.217
		s-1.574,0.667-2.272,1.252c-0.698,0.584-1.298,1.32-1.797,2.209c-0.499,0.89-0.817,1.784-0.953,2.686
		c-0.135,0.901-0.097,1.763,0.115,2.587c0.213,0.824,0.596,1.586,1.147,2.284c0.552,0.699,1.263,1.294,2.136,1.784
		s1.752,0.789,2.639,0.898s1.737,0.041,2.551-0.207c0.815-0.246,1.571-0.661,2.271-1.246s1.298-1.321,1.798-2.211
		C172.069,385.174,172.386,384.278,172.521,383.379z M170.725,383.007c-0.128,0.69-0.395,1.4-0.805,2.13
		c-0.409,0.729-0.876,1.326-1.399,1.791c-0.522,0.466-1.078,0.797-1.667,0.992c-0.59,0.195-1.204,0.253-1.842,0.174
		c-0.639-0.078-1.278-0.298-1.919-0.657c-0.636-0.356-1.152-0.788-1.553-1.292c-0.398-0.504-0.67-1.06-0.812-1.666
		c-0.143-0.607-0.151-1.254-0.026-1.942c0.127-0.689,0.394-1.398,0.802-2.127c0.41-0.729,0.878-1.328,1.401-1.796
		c0.524-0.469,1.084-0.798,1.676-0.992c0.592-0.193,1.208-0.253,1.848-0.177s1.277,0.292,1.912,0.648
		c0.641,0.36,1.16,0.793,1.559,1.301c0.398,0.507,0.667,1.063,0.806,1.668C170.846,381.667,170.852,382.314,170.725,383.007z"/>
	<polygon fill="#FFFFFF" points="178.68,381.788 177.012,381.027 171.361,393.412 178.387,396.618 179.029,395.209 173.671,392.764 
			"/>
	<path fill="#FFFFFF" d="M192.965,387.96c-0.66-0.604-1.461-1.076-2.401-1.419c-0.939-0.341-1.855-0.492-2.746-0.452
		c-0.892,0.041-1.719,0.25-2.483,0.63c-0.764,0.379-1.443,0.914-2.038,1.604c-0.594,0.691-1.065,1.515-1.413,2.474
		c-0.349,0.957-0.517,1.893-0.504,2.804s0.191,1.755,0.535,2.534c0.344,0.778,0.845,1.467,1.503,2.066s1.457,1.071,2.398,1.412
		c0.939,0.343,1.856,0.495,2.749,0.459c0.894-0.037,1.72-0.243,2.483-0.62c0.764-0.376,1.442-0.909,2.037-1.6
		c0.595-0.689,1.065-1.515,1.415-2.473c0.348-0.958,0.515-1.894,0.502-2.805s-0.189-1.757-0.532-2.539
		C194.126,389.256,193.625,388.563,192.965,387.96z M192.722,394.733c-0.285,0.786-0.647,1.451-1.088,1.996
		c-0.44,0.544-0.937,0.96-1.485,1.249s-1.146,0.446-1.788,0.472c-0.644,0.026-1.31-0.086-2-0.337
		c-0.686-0.249-1.267-0.589-1.742-1.021s-0.834-0.937-1.071-1.513c-0.24-0.575-0.354-1.212-0.342-1.912s0.16-1.443,0.445-2.229
		c0.286-0.786,0.647-1.453,1.089-2s0.939-0.964,1.492-1.251c0.552-0.288,1.151-0.446,1.795-0.476c0.644-0.028,1.308,0.08,1.992,0.33
		c0.69,0.251,1.273,0.594,1.749,1.028c0.475,0.436,0.831,0.94,1.067,1.515c0.235,0.574,0.347,1.213,0.334,1.917
		C193.158,393.204,193.007,393.948,192.722,394.733z"/>
	<path fill="#FFFFFF" d="M207.479,392.075c-0.342-0.241-0.728-0.459-1.155-0.651c-0.428-0.191-0.902-0.354-1.424-0.49
		c-1.03-0.266-2.005-0.344-2.923-0.233c-0.917,0.109-1.744,0.385-2.479,0.826s-1.368,1.035-1.897,1.782
		c-0.529,0.746-0.924,1.621-1.184,2.627c-0.257,0.994-0.329,1.946-0.218,2.858s0.393,1.74,0.845,2.488
		c0.451,0.748,1.061,1.396,1.828,1.944c0.768,0.549,1.683,0.96,2.743,1.233c0.895,0.23,1.749,0.326,2.561,0.283
		c0.813-0.042,1.612-0.217,2.398-0.524l1.305-5.06l-4.047-1.044l-0.261,1.012c-0.026,0.098-0.013,0.19,0.041,0.275
		c0.053,0.086,0.138,0.145,0.254,0.174l2.053,0.529l-0.749,2.897c-0.517,0.128-1.031,0.2-1.542,0.215
		c-0.511,0.016-1.073-0.056-1.687-0.215c-0.778-0.2-1.45-0.502-2.013-0.901c-0.564-0.401-1.007-0.887-1.327-1.457
		c-0.321-0.568-0.516-1.211-0.582-1.926c-0.067-0.714,0.005-1.484,0.219-2.313c0.206-0.798,0.505-1.487,0.897-2.068
		c0.393-0.583,0.858-1.044,1.397-1.387c0.54-0.341,1.141-0.556,1.805-0.643s1.366-0.035,2.108,0.156
		c0.509,0.132,0.938,0.285,1.29,0.461c0.35,0.176,0.646,0.354,0.891,0.539c0.243,0.184,0.444,0.362,0.603,0.533
		c0.157,0.172,0.3,0.319,0.425,0.442c0.129,0.132,0.261,0.197,0.396,0.196c0.135-0.002,0.257-0.054,0.369-0.155l0.715-0.679
		c-0.216-0.33-0.459-0.64-0.73-0.93C208.129,392.584,207.823,392.318,207.479,392.075z"/>
	
		<rect x="210.873" y="392.782" transform="matrix(-0.9818 -0.1897 0.1897 -0.9818 343.9455 832.0985)" fill="#FFFFFF" width="1.843" height="13.613"/>
	<path fill="#FFFFFF" d="M227.583,396.902c-0.506-0.688-1.147-1.254-1.923-1.698c-0.776-0.444-1.659-0.73-2.652-0.857
		c-0.993-0.128-1.919-0.075-2.779,0.159c-0.861,0.235-1.621,0.62-2.284,1.157c-0.663,0.538-1.209,1.209-1.638,2.013
		c-0.43,0.804-0.71,1.711-0.839,2.722c-0.13,1.012-0.089,1.961,0.122,2.848c0.213,0.886,0.571,1.671,1.078,2.355
		c0.506,0.684,1.145,1.247,1.919,1.687c0.771,0.441,1.655,0.727,2.648,0.854c0.835,0.107,1.627,0.088,2.373-0.059l2.033,2.886
		c0.124,0.176,0.271,0.305,0.438,0.391c0.168,0.086,0.365,0.143,0.592,0.172l1.508,0.193l-2.978-4.185
		c0.478-0.238,0.918-0.536,1.321-0.894c0.403-0.356,0.76-0.766,1.067-1.227c0.31-0.462,0.564-0.971,0.767-1.525
		c0.202-0.556,0.345-1.15,0.426-1.785c0.13-1.011,0.089-1.96-0.123-2.845C228.448,398.377,228.088,397.59,227.583,396.902z
		 M226.908,401.867c-0.107,0.83-0.315,1.559-0.626,2.187c-0.311,0.627-0.703,1.142-1.176,1.543c-0.472,0.402-1.02,0.687-1.642,0.853
		c-0.621,0.166-1.297,0.201-2.025,0.108c-0.723-0.094-1.364-0.299-1.923-0.615c-0.559-0.318-1.019-0.731-1.378-1.24
		c-0.358-0.51-0.609-1.106-0.751-1.792s-0.159-1.443-0.054-2.272c0.107-0.828,0.315-1.559,0.627-2.189
		c0.311-0.63,0.705-1.146,1.18-1.548c0.477-0.401,1.025-0.688,1.647-0.856s1.294-0.208,2.017-0.114
		c0.729,0.093,1.373,0.3,1.932,0.621s1.017,0.735,1.372,1.245c0.356,0.508,0.605,1.107,0.747,1.796
		C226.997,400.279,227.013,401.038,226.908,401.867z"/>
	<path fill="#FFFFFF" d="M240.37,404.124c-0.024,0.57-0.127,1.089-0.31,1.555c-0.182,0.468-0.435,0.866-0.756,1.194
		c-0.322,0.329-0.708,0.578-1.159,0.749c-0.451,0.17-0.959,0.244-1.522,0.219c-0.562-0.023-1.063-0.143-1.5-0.354
		c-0.438-0.213-0.803-0.496-1.095-0.852s-0.509-0.773-0.649-1.255s-0.199-1.007-0.174-1.575l0.358-8.259l-1.832-0.079l-0.359,8.268
		c-0.033,0.785,0.06,1.518,0.28,2.198c0.222,0.682,0.555,1.277,1.003,1.788c0.446,0.512,0.999,0.921,1.658,1.229
		c0.658,0.307,1.406,0.479,2.24,0.516c0.836,0.035,1.595-0.071,2.276-0.32c0.684-0.249,1.268-0.608,1.755-1.08
		c0.486-0.47,0.869-1.034,1.148-1.695c0.277-0.659,0.435-1.38,0.468-2.165l0.358-8.268l-1.831-0.079L240.37,404.124z"/>
	<polygon fill="#FFFFFF" points="247.779,407.996 247.607,403.354 252.904,403.156 252.851,401.713 247.552,401.911 
		247.384,397.393 253.924,397.148 253.869,395.647 245.487,395.961 245.995,409.565 254.376,409.252 254.331,407.752 	"/>
	<polygon fill="#FFFFFF" points="264.265,407.037 263.75,402.421 269.019,401.834 268.859,400.398 263.591,400.985 263.091,396.492 
		269.595,395.767 269.429,394.275 261.092,395.203 262.6,408.733 270.936,407.805 270.779,406.312 	"/>
	<polygon fill="#FFFFFF" points="280.769,392.298 270.279,394.179 270.55,395.702 274.899,394.923 277.028,406.799 278.833,406.475 
		276.704,394.6 281.043,393.821 	"/>
	<polygon fill="#FFFFFF" points="291.64,402.039 290.371,397.57 295.47,396.121 295.076,394.732 289.976,396.181 288.741,391.83 
		295.038,390.042 294.627,388.599 286.558,390.891 290.277,403.986 298.347,401.695 297.946,400.248 	"/>
	<path fill="#FFFFFF" d="M290.543,385.938l-1.4,3.103l1.171-0.332c0.121-0.035,0.222-0.073,0.303-0.116
		c0.08-0.042,0.153-0.119,0.221-0.23l2.237-3.459l-1.837,0.521c-0.201,0.058-0.351,0.116-0.448,0.177
		C290.691,385.661,290.609,385.774,290.543,385.938z"/>
	<path fill="#FFFFFF" d="M309.202,394.8c-0.102,0.037-0.186,0.118-0.254,0.246c-0.145,0.282-0.302,0.538-0.471,0.767
		c-0.168,0.229-0.364,0.438-0.587,0.628c-0.224,0.19-0.479,0.365-0.77,0.522c-0.289,0.159-0.624,0.308-1.005,0.448
		c-0.623,0.231-1.244,0.334-1.866,0.308c-0.62-0.026-1.208-0.182-1.763-0.467c-0.555-0.284-1.062-0.696-1.521-1.234
		c-0.46-0.539-0.837-1.206-1.132-2.003c-0.291-0.784-0.442-1.527-0.453-2.232c-0.012-0.705,0.101-1.347,0.334-1.928
		c0.235-0.579,0.583-1.085,1.044-1.517c0.462-0.431,1.022-0.769,1.683-1.014c0.546-0.202,1.027-0.314,1.445-0.338
		c0.417-0.021,0.776-0.009,1.077,0.041c0.303,0.051,0.553,0.105,0.751,0.163c0.196,0.06,0.349,0.069,0.455,0.029
		c0.096-0.035,0.164-0.082,0.206-0.143c0.043-0.06,0.07-0.125,0.084-0.198l0.275-1.003c-0.712-0.303-1.471-0.472-2.272-0.505
		c-0.803-0.033-1.658,0.118-2.567,0.455c-0.927,0.343-1.715,0.815-2.363,1.417c-0.647,0.601-1.14,1.291-1.475,2.071
		c-0.337,0.779-0.507,1.627-0.513,2.54c-0.006,0.914,0.169,1.853,0.525,2.813c0.357,0.963,0.829,1.792,1.416,2.485
		c0.588,0.693,1.253,1.229,1.994,1.605c0.74,0.378,1.544,0.587,2.41,0.627c0.867,0.04,1.756-0.108,2.671-0.448
		c1.057-0.391,1.896-0.894,2.516-1.508c0.619-0.615,1.079-1.322,1.378-2.121l-0.961-0.486
		C309.394,394.771,309.296,394.764,309.202,394.8z"/>
	<path fill="#FFFFFF" d="M322.017,384.407c-0.443-0.918-0.996-1.69-1.658-2.317c-0.66-0.625-1.392-1.089-2.19-1.387
		c-0.8-0.3-1.646-0.424-2.538-0.372s-1.79,0.295-2.69,0.73c-0.901,0.436-1.647,0.987-2.24,1.653
		c-0.592,0.666-1.019,1.405-1.28,2.218c-0.262,0.813-0.353,1.674-0.272,2.579c0.08,0.908,0.343,1.821,0.786,2.739
		s0.996,1.69,1.658,2.315c0.661,0.626,1.392,1.088,2.188,1.385c0.798,0.297,1.642,0.419,2.53,0.365
		c0.888-0.054,1.782-0.298,2.684-0.733s1.65-0.986,2.246-1.65c0.598-0.665,1.026-1.401,1.29-2.212
		c0.263-0.81,0.354-1.668,0.273-2.576C322.723,386.238,322.46,385.325,322.017,384.407z M320.846,389.338
		c-0.177,0.595-0.479,1.132-0.909,1.61c-0.431,0.479-0.976,0.879-1.639,1.198c-0.655,0.316-1.305,0.495-1.945,0.534
		c-0.643,0.04-1.253-0.056-1.832-0.285c-0.579-0.229-1.115-0.593-1.608-1.09c-0.494-0.497-0.922-1.121-1.287-1.874
		c-0.364-0.753-0.587-1.479-0.672-2.176c-0.084-0.697-0.037-1.345,0.143-1.941c0.179-0.597,0.482-1.136,0.912-1.617
		c0.429-0.481,0.97-0.882,1.626-1.198c0.661-0.32,1.314-0.499,1.957-0.536c0.644-0.036,1.253,0.062,1.83,0.292
		c0.576,0.232,1.111,0.598,1.606,1.098c0.494,0.499,0.924,1.125,1.288,1.878c0.363,0.753,0.588,1.476,0.671,2.17
		C321.069,388.097,321.022,388.741,320.846,389.338z"/>
	<path fill="#FFFFFF" d="M328.923,372.214l5.081,8.195c0.073,0.119,0.155,0.24,0.245,0.367s0.184,0.257,0.281,0.391l-12.095-4.562
		c-0.077-0.027-0.145-0.047-0.204-0.058c-0.06-0.012-0.114-0.015-0.164-0.011c-0.049,0.005-0.1,0.017-0.153,0.039
		c-0.053,0.021-0.114,0.056-0.185,0.099l-0.808,0.5l7.174,11.57l1.373-0.852l-5.112-8.242c-0.069-0.113-0.147-0.232-0.232-0.359
		c-0.086-0.125-0.176-0.252-0.271-0.38l12.101,4.569c0.145,0.052,0.271,0.074,0.382,0.065s0.227-0.052,0.351-0.129l0.783-0.486
		l-7.174-11.569L328.923,372.214z"/>
	<path fill="#FFFFFF" d="M346.886,367.367c-0.623-0.808-1.324-1.449-2.101-1.927c-0.775-0.477-1.586-0.779-2.43-0.907
		c-0.843-0.129-1.697-0.075-2.561,0.159c-0.862,0.234-1.689,0.658-2.481,1.27c-0.793,0.612-1.409,1.305-1.853,2.079
		c-0.441,0.773-0.707,1.585-0.796,2.434c-0.089,0.848-0.001,1.709,0.265,2.58c0.265,0.872,0.71,1.711,1.333,2.518
		s1.323,1.449,2.1,1.926c0.775,0.477,1.585,0.778,2.427,0.904s1.691,0.071,2.551-0.164c0.858-0.235,1.684-0.658,2.476-1.271
		c0.792-0.611,1.412-1.305,1.858-2.078c0.447-0.772,0.716-1.583,0.806-2.429c0.092-0.846,0.005-1.705-0.262-2.577
		C347.954,369.012,347.509,368.174,346.886,367.367z M346.196,374.196c-0.322,0.557-0.774,1.06-1.355,1.509
		c-0.575,0.444-1.175,0.754-1.795,0.924c-0.62,0.172-1.236,0.203-1.852,0.098c-0.614-0.105-1.214-0.352-1.799-0.735
		c-0.583-0.384-1.132-0.907-1.644-1.568c-0.511-0.661-0.88-1.325-1.105-1.991c-0.227-0.666-0.313-1.309-0.26-1.931
		c0.052-0.62,0.238-1.21,0.559-1.77c0.32-0.559,0.769-1.061,1.345-1.507c0.582-0.448,1.182-0.757,1.806-0.926
		c0.622-0.169,1.238-0.199,1.85-0.092c0.612,0.108,1.212,0.355,1.799,0.742c0.586,0.387,1.135,0.911,1.646,1.573
		c0.51,0.661,0.879,1.323,1.103,1.986c0.225,0.663,0.312,1.305,0.261,1.924C346.704,373.052,346.518,373.64,346.196,374.196z"/>
	<path fill="#FFFFFF" d="M353.565,351.715c-0.119,0.114-0.2,0.214-0.244,0.3c-0.045,0.087-0.044,0.209,0.003,0.366l2.478,9.232
		c0.047,0.167,0.104,0.335,0.169,0.504c0.066,0.17,0.135,0.338,0.207,0.506c-0.162-0.079-0.328-0.153-0.495-0.222
		c-0.166-0.068-0.329-0.131-0.49-0.188l-9.198-2.776c-0.16-0.048-0.283-0.052-0.37-0.014c-0.086,0.039-0.188,0.115-0.307,0.229
		l-0.978,0.942l9.44,9.808l1.163-1.12l-6.938-7.206c-0.197-0.206-0.426-0.416-0.687-0.632l9.365,2.853
		c0.303,0.104,0.561,0.053,0.775-0.153l0.191-0.185c0.215-0.207,0.275-0.463,0.184-0.77l-2.535-9.373
		c0.1,0.122,0.199,0.242,0.299,0.358c0.099,0.116,0.193,0.222,0.286,0.317l6.936,7.207l1.164-1.12l-9.439-9.808L353.565,351.715z"/>
	
		<rect x="355.466" y="351.272" transform="matrix(-0.7436 -0.6687 0.6687 -0.7436 396.1445 856.3098)" fill="#FFFFFF" width="13.613" height="1.842"/>
	<path fill="#FFFFFF" d="M375.921,343.227c-0.098-0.531-0.263-1.047-0.499-1.55c-0.235-0.502-0.539-0.984-0.909-1.444
		c-0.371-0.46-0.807-0.888-1.308-1.286c-0.798-0.634-1.631-1.09-2.499-1.367c-0.868-0.276-1.727-0.377-2.577-0.299
		c-0.85,0.077-1.665,0.332-2.447,0.768c-0.782,0.435-1.484,1.043-2.106,1.826c-0.622,0.784-1.056,1.604-1.3,2.462
		c-0.245,0.857-0.308,1.709-0.19,2.554c0.116,0.845,0.409,1.659,0.875,2.442c0.466,0.782,1.099,1.491,1.897,2.125
		c0.798,0.635,1.632,1.09,2.499,1.367c0.868,0.277,1.726,0.375,2.573,0.297c0.847-0.079,1.66-0.336,2.438-0.771
		c0.776-0.434,1.476-1.042,2.099-1.826c0.524-0.659,0.916-1.347,1.178-2.063l3.52-0.248c0.215-0.016,0.402-0.072,0.563-0.172
		c0.159-0.1,0.311-0.239,0.453-0.418l0.945-1.189l-5.122,0.385C376.045,344.287,376.018,343.756,375.921,343.227z M374.171,345.741
		c-0.18,0.619-0.498,1.215-0.955,1.791c-0.452,0.569-0.96,1.013-1.521,1.326c-0.561,0.315-1.152,0.495-1.774,0.539
		s-1.263-0.051-1.923-0.284c-0.66-0.232-1.316-0.608-1.971-1.129c-0.655-0.521-1.172-1.076-1.551-1.669
		c-0.379-0.592-0.617-1.195-0.715-1.811c-0.098-0.614-0.059-1.232,0.119-1.853c0.176-0.619,0.491-1.215,0.944-1.785
		c0.457-0.576,0.968-1.021,1.531-1.331c0.564-0.313,1.154-0.49,1.774-0.531c0.619-0.042,1.26,0.054,1.923,0.289
		c0.663,0.236,1.321,0.611,1.977,1.132c0.654,0.52,1.169,1.075,1.545,1.666c0.377,0.59,0.615,1.191,0.715,1.804
		C374.39,344.51,374.35,345.125,374.171,345.741z"/>
	<path fill="#FFFFFF" d="M383.564,330.112c-0.419-0.582-0.954-1.091-1.607-1.528l-6.877-4.602l-1.02,1.523l6.876,4.603
		c0.474,0.317,0.863,0.675,1.169,1.073c0.305,0.398,0.514,0.82,0.628,1.266c0.112,0.446,0.125,0.906,0.036,1.379
		c-0.089,0.475-0.29,0.945-0.604,1.414s-0.675,0.834-1.083,1.099c-0.41,0.264-0.842,0.428-1.297,0.492
		c-0.455,0.065-0.925,0.033-1.409-0.097s-0.964-0.354-1.438-0.671l-6.868-4.597l-1.021,1.523l6.877,4.603
		c0.653,0.438,1.327,0.738,2.025,0.903c0.695,0.166,1.379,0.191,2.048,0.074c0.668-0.116,1.305-0.376,1.91-0.779
		c0.605-0.402,1.141-0.951,1.605-1.646s0.769-1.399,0.909-2.112c0.142-0.712,0.139-1.398-0.011-2.059
		C384.266,331.313,383.982,330.693,383.564,330.112z"/>
	<polygon fill="#FFFFFF" points="388.049,325.839 384.028,323.512 386.682,318.924 385.432,318.2 382.778,322.789 378.863,320.524 
		382.141,314.859 380.841,314.107 376.642,321.369 388.425,328.185 392.625,320.925 391.331,320.164 	"/>
</g>
</svg>
