<?xml version="1.0" encoding="utf-8"?>
<!-- Generator: Adobe Illustrator 17.1.0, SVG Export Plug-In . SVG Version: 6.00 Build 0)  -->
<!DOCTYPE svg PUBLIC "-//W3C//DTD SVG 1.1//EN" "http://www.w3.org/Graphics/SVG/1.1/DTD/svg11.dtd">
<svg version="1.1" xmlns="http://www.w3.org/2000/svg" xmlns:xlink="http://www.w3.org/1999/xlink" x="0px" y="0px"
	 viewBox="0 0 1788.1 925.6" enable-background="new 0 0 1788.1 925.6" xml:space="preserve">
<g id="Calque_1">
</g>
<g id="Calque_2" display="none">
</g>
<g id="Calque_5" display="none">
</g>
<g id="Calque_6">
</g>
<g id="repères">
</g>
<g id="numéro_x2F_lettres">
</g>
<g id="pions">
	<g>
		<g>
			<path fill="#FDB886" stroke="#FDB886" stroke-linejoin="round" stroke-miterlimit="10" d="M1595.9,276.8
				c-6.2,2.2-11,2.6-16.2,9.4c-5.2,6.7-10.4,15.4-16.7,17c-6.2,1.7-11.3,2-16.2,2.3c-4.9,0.3-4.9,0.5-8.8,3.7
				c-3.9,3.2-2.2,3.4-2.5,9.4c-0.2,4.3,2.6,4.6-4.1,11.4c-3.3,3.5-1.4,7.8-9.7,13.1c-8.3,5.3-15.5,12.1-39.2,9.9
				c-12.5-1.4-19.3,0.2-20.7,4.1c-1.4,3.9-1,7.6-13.5,15.9c-12.5,8.2-19.7,11.2-19,20.3c0.8,9.1,2.8,10.7,9.5,8.7
				c6.7-2,23.1-3.3,24.9,0.4c1.8,3.7-1.4,7.4-9,10.7c-7.6,3.4-23,10.8-29.8,17.5c-6.8,6.7-12.9,14-17.8,18.6
				c-3.9,3.7-10.3,3.2-12.3,5.3c-0.5,0.5-0.5,3.8-0.4,4.4c0.6,2.6,4.7,5.5,6.3,6.7c1.6,1.2,5.3,1.3,11.1-0.3
				c5.8-1.6,52.6-15.6,70.4-12.1c17.8,3.6,22.9,6.1,38.7,16.4c15.8,10.3,26.3,7.5,34.7,2.3c8.5-5.2,45-7.6,63-10.6
				c18.1-3,40.6-4.2,47.4-12.2c2.9-3,4.7-0.1,8.1-2.5c3.4-2.4,0.9-3.6,2.7-5.5c1.8-1.9,4-2.6,7.6-2.5c3.5,0.1,5.7-2.6,8-4.2
				c0.5-0.4,0.8-0.7,0.8-1c0-0.5,0.3-4-0.7-4.7c-1.2-0.9-4,0.9-6.4-1c-5.7-4.6-6.3-5-7.5-6.5c-1.1-1.5-3.9-1.5-9-0.7
				c-2.8,0.3-5.7-4.7-2.7-8.7c1.4-1.8,2.7-3.4,2.6-4.7c0-0.7,0-4.7-0.9-5.3c-1.3-0.7-4,2.1-7.7,1.7c-11.8-1.2-17.6,0.7-22.9-0.5
				c-5.3-1.2-11.9-3.2,3.2-9.6c15-6.4,29.7-10.4,46.1-6.6c16.4,3.8,12.1,7.3,25.6,0.2c11-5.8,16.5-5.7,17.3-8.9
				c0.2-0.7,0.4-3.4,0.1-4.6c-1.5-6.3-3.4-11.6,7.4-13.8c6.7-1.4,6.2,2.6,15-1.4c8.8-3.9,10.6-4.1,12.5-9.4c1.2-3.2,2.6-4.8,2.5-5.7
				c-0.1-0.6,0.9-4.2-1-4.5c-4.8-0.6-8.7,3.8-12.6,3c-3.9-0.8-11.4-1-26.9-11.3c-15.5-10.3-25.5-18.6-41.9-15.8
				c-16.4,2.8-16.2,3.1-26.4-0.9c-10.2-4-17.8-8.4-20-12.7c-2.1-4.3-12.4-7-13.8-9.9c-1.4-2.8-0.1-8.4,0-11.1c0.1-2.7-0.9-5-6.1-6.7
				c-5.2-1.7-6.2-2.6-13.5-0.1C1598.5,275.9,1595.9,276.8,1595.9,276.8z"/>
			<path fill="#FEE6C2" stroke="#FDB886" stroke-width="0.5" stroke-linejoin="round" stroke-miterlimit="10" d="M1595.9,272.8
				c-6.2,2.2-11,2.6-16.2,9.4c-5.2,6.7-10.4,15.4-16.7,17c-6.2,1.7-11.3,2-16.2,2.3c-4.9,0.3-4.9,0.5-8.8,3.7
				c-3.9,3.2-2.2,3.4-2.5,9.4c-0.2,4.3,2.6,4.6-4.1,11.4c-3.3,3.5-1.4,7.8-9.7,13.1c-8.3,5.3-15.5,12.1-39.2,9.9
				c-12.5-1.4-19.3,0.2-20.7,4.1c-1.4,3.9-1,7.6-13.5,15.9c-12.5,8.2-19.7,11.2-19,20.3c0.8,9.1,2.8,10.7,9.5,8.7
				c6.7-2,23.1-3.3,24.9,0.4c1.8,3.7-1.4,7.4-9,10.7c-7.6,3.4-23,10.8-29.8,17.5c-6.8,6.7-12.9,14-17.8,18.6
				c-4.9,4.6-13.3,7.1-12.6,9.6c0.6,2.6,4.7,5.5,6.3,6.7c1.6,1.2,5.3,1.3,11.1-0.3c5.8-1.6,52.6-15.6,70.4-12.1
				c17.8,3.6,22.9,6.1,38.7,16.4c15.8,10.3,26.3,7.5,34.7,2.3c8.5-5.2,45-7.6,63-10.6c18.1-3,40.6-4.2,47.4-12.2
				c2.9-3,4.7-0.1,8.1-2.5c3.4-2.4,0.9-3.6,2.7-5.5c1.8-1.9,4-2.6,7.6-2.5c3.5,0.1,5.7-2.6,8-4.2c2.3-1.6-0.6-2.1-6.3-6.7
				c-5.7-4.6-6.3-5-7.5-6.5c-1.1-1.5-3.9-1.5-9-0.7c-2.8,0.3-5.7-4.7-2.7-8.7c3-3.9,5.7-7.1-6.1-8.3c-11.8-1.2-17.6,0.7-22.9-0.5
				c-5.3-1.2-11.9-3.2,3.2-9.6c15-6.4,29.7-10.4,46.1-6.6c16.4,3.8,12.1,7.3,25.6,0.2c13.5-7.1,18.7-5.4,17.2-11.7
				c-1.5-6.3-3.2-13.4,7.7-15.6c6.7-1.4,6.2,2.6,15-1.4c8.8-3.9,10.6-4.1,12.5-9.4c1.9-5.3,4.5-6.1-0.3-6.7
				c-4.8-0.6-6.9,0.4-10.9-0.4c-3.9-0.8-11.4-1-26.9-11.3c-15.5-10.3-25.5-18.6-41.9-15.8c-16.4,2.8-16.2,3.1-26.4-0.9
				c-10.2-4-17.8-8.4-20-12.7c-2.1-4.3-12.4-7-13.8-9.9c-1.4-2.8-0.1-8.4,0-11.1c0.1-2.7-0.9-5-6.1-6.7c-5.2-1.7-6.2-2.6-13.5-0.1
				C1598.5,271.9,1595.9,272.8,1595.9,272.8z"/>
			<path fill="#FDB886" stroke="#FDB886" stroke-linejoin="round" stroke-miterlimit="10" d="M1661.2,324c-4.5-3-14.6-10.8-22-15.1
				c-7.4-4.3-27.1-9.6-31.8-12.2c-4.7-2.5-9.6-5.9-16.3-3.8c-6.7,2.1,2.5,11.8-5.7,19.6c-8.2,7.9-23,17.4-30.1,28.3
				c-7.1,10.9-7.6,16.6-18.8,20.4c-11.3,3.8-31.4,0.3-43.7,2.3c-12.3,2-22,5-20.3,12.7c1.7,7.8,16.1,12.1,17,17.6
				c0.8,5.5,3,11.9-16.5,22.6c-19.5,10.7-26,10.1-32.3,16.3c-1.9,1.9-1.6,5.4-1.6,6.9c0.1,3.5,5.3,5.6,15.1,4
				c14.1-2.3,47.3-6.9,68.1,1.8c20.9,8.8,24,1.7,47.6-0.5c23.5-2.1,54,1.8,65.3-2.9c10.1-4.3,27.2-11.2,27.3-17
				c0-0.7,0.1-3.7-0.4-4.4c-4.9-6.1-5.4-7.6-30.3-12.8c-24.9-5.3-17.5-19.4,12.3-27.3c29.8-7.9,38.8-5.7,49.4-10.5
				c10.6-4.8-8.2-7.9,14.6-12.9c17.3-3.8,26.3-5.6,27.1-9c0.3-1.1,0.7-4.3-0.8-5.9c-6.1-6.2-13-11.3-39.4-12.8
				C1668.4,328.2,1666.9,327.8,1661.2,324z"/>
			<path fill="#FEE6C2" stroke="#FDB886" stroke-width="0.5" stroke-linejoin="round" stroke-miterlimit="10" d="M1661.2,320
				c-4.5-3-14.6-10.8-22-15.1c-7.4-4.3-27.1-9.6-31.8-12.2c-4.7-2.5-9.6-5.9-16.3-3.8c-6.7,2.1,2.5,11.8-5.7,19.6
				c-8.2,7.9-23,17.4-30.1,28.3c-7.1,10.9-7.6,16.6-18.8,20.4c-11.3,3.8-31.4,0.3-43.7,2.3c-12.3,2-22,5-20.3,12.7
				c1.7,7.8,16.1,12.1,17,17.6c0.8,5.5,3,11.9-16.5,22.6c-19.5,10.7-24.7,11.8-31.1,18c-6.4,6.2-1.9,11.6,12.3,9.2
				c14.1-2.3,47.3-6.9,68.1,1.8c20.9,8.8,24,1.7,47.6-0.5c23.5-2.1,54,1.8,65.3-2.9c11.3-4.8,31.4-12.9,26.6-19.1
				c-4.9-6.1-5-9.9-29.9-15.2c-24.9-5.3-17.5-19.4,12.3-27.3c29.8-7.9,38.8-5.7,49.4-10.5c10.6-4.8-8.2-7.9,14.6-12.9
				c22.9-5.1,31.3-6.6,25.2-12.8c-6.1-6.2-11.9-13.3-38.3-14.8C1668.4,324.1,1666.9,323.8,1661.2,320z"/>
			<path fill="#FDB886" stroke="#FDB886" stroke-linejoin="round" stroke-miterlimit="10" d="M1604.1,318.4
				c-3.9,4.8-6.7,4.9-15.3,14.3c-8.6,9.4-5.8,18-18.2,26.7c-12.4,8.6-24.6,15.7-47.9,16.6c-23.3,0.9-22.8,14.1-5.8,21.5
				c17,7.5-1.3,22.7,7.6,30.2c8.9,7.5,12.9,12.7,36.5,3.8c16-5.7,39-1.5,49.7-5.3c4.4-1.6,6.6-3.4,6.9-5.3c0.1-0.6,0-3.9-0.3-4.6
				c-0.9-2.2-3.7-1.9-7.9-4.3c-9.4-5.4-30.7-14.8,8.9-34.7c33.1-16.6,39.7-19,38.9-23.8c-0.8-4.8-0.4-13.6-2.1-18.2
				c-1.8-4.5-20.1-21.3-37.3-23.6C1609.1,309.9,1604.7,317.4,1604.1,318.4z"/>
			<path fill="#FEE6C2" stroke="#FDB886" stroke-width="0.5" stroke-linejoin="round" stroke-miterlimit="10" d="M1604.1,314.4
				c-3.9,4.8-6.7,4.9-15.3,14.3c-8.6,9.4-5.8,18-18.2,26.7c-12.4,8.6-24.6,15.7-47.9,16.6c-23.3,0.9-22.8,14.1-5.8,21.5
				c17,7.5-1.3,22.7,7.6,30.2c8.9,7.5,12.9,12.7,36.5,3.8c16-5.7,39-1.5,49.7-5.3c10.6-3.8,8.1-8.8-1.3-14.2
				c-9.4-5.4-30.7-14.8,8.9-34.7c33.1-16.6,39.7-19,38.9-23.8c-0.8-4.8-0.4-13.6-2.1-18.2c-1.8-4.5-20.1-21.3-37.3-23.6
				C1609.1,305.9,1604.7,313.4,1604.1,314.4z"/>
			<path fill="#FDB886" stroke="#FDB886" stroke-linejoin="round" stroke-miterlimit="10" d="M1477.3,506.9c0,3.1,7.6,8.7,9.2,14.5
				c1.8,6.5,0.9,6.7,0.9,6.7s-4.9-0.7-7.2,0.6c-2.3,1.3-2.8,0.9-3.1,3.5c-0.4,3.8-2.2,6.6,11.5,12.6c13.7,6,29.1,12.3,36.3,19.8
				c7.2,7.5,4.3,8.4,9.6,8.8c5.2,0.4,15.9,0.5,20.4,1.3c2.8,0.3,2.5-1.7,4.6-4c1.8-2.1,14.6-15,15.2-22.3c0.1-0.8,0-4.3-0.3-4.9
				c-2.9-6.4-5.6-12.5-3.6-21c1-4.3,2.6-6.6,2.7-9c0-0.9-0.1-3.3-0.3-4.7c-0.3-1.8-3.1-1.5-6.5-4.1c-10.6-8.2-11.8-12.4-14.2-15.5
				c-2.4-3-10.2-5.6-14.2-6.7c-4-1.1-1.9,2.6-9.2,3.7c-7.3,1.1-17.4,0-28.5,3.8c-2.8,1-22.9,11.1-23,12.7
				C1477.4,504.4,1477.3,506.9,1477.3,506.9z"/>
			<path fill="#FEE6C2" stroke="#FDB886" stroke-width="0.5" stroke-linejoin="round" stroke-miterlimit="10" d="M1500.5,486.1
				c-2.9,1-17.8,8.6-22.9,15.9c-2.1,2.8,7.1,9,8.8,15.5c1.8,6.5,0.9,6.7,0.9,6.7s-4.9-0.7-7.2,0.6c-2.3,1.3-2.2,1.8-2.8,4.4
				c-0.6,2.6-2.4,5.7,11.2,11.7c13.7,6,29.1,12.3,36.3,19.8c7.2,7.5,4.3,8.4,9.6,8.8c5.2,0.4,15.9,0.5,20.4,1.3
				c2.8,0.3,2.5-1.7,4.6-4c2-2.4,17.8-18.1,14.8-24.6c-2.9-6.4-5.5-15.2-3.6-23.7c1.9-8.5,6.5-9.5-4.1-17.8
				c-10.6-8.2-11.8-12.4-14.2-15.5c-2.4-3-10.2-5.6-14.2-6.7c-4-1.1-1.9,2.6-9.2,3.7C1521.7,483.4,1511.6,482.3,1500.5,486.1z"/>
			<path fill="#FDB886" stroke="#FDB886" stroke-linejoin="round" stroke-miterlimit="10" d="M1552.5,527.2
				c1.2,8.4,2.9,17.1,4.3,21.5c0.7,2,0.8,4.3,0.6,5.3c-0.3,1.1-1.8,1.8-5.6,2.4c-7.2,1.2-11.6,3.6-15.1,1.2
				c-3.5-2.4-22.8-17-33.9-19.6c-5.8-1.4-8-3.2-7.9-5.3c0-0.6,0-3.7,0.4-4.3c0.8-1.5,2.6-0.5,4.7-2.1c6.1-4.7,5-7.6,4-14.4
				c-1-6.8,2.8-12.3,9.2-14.7c6.4-2.4,7.3-2.9,11.9,0.1c4.6,3,15.7,7.7,20.3,9.8C1557,512.5,1551.4,518.8,1552.5,527.2z"/>
			<path fill="#FEE6C2" stroke="#FDB886" stroke-width="0.5" stroke-linejoin="round" stroke-miterlimit="10" d="M1552.5,523.2
				c1.2,8.4,2.4,18,3.8,22.4c1.4,4.4,2.6,5.6-4.6,6.8c-7.2,1.2-11.6,3.6-15.1,1.2c-3.5-2.4-22.8-17-33.9-19.6
				c-11.1-2.6-8.9-7-2.8-11.7c6.1-4.7,5-7.6,4-14.4c-1-6.8,2.8-12.3,9.2-14.7c6.4-2.4,7.3-2.9,11.9,0.1c4.6,3,15.7,7.7,20.3,9.8
				C1557,508.5,1551.4,514.8,1552.5,523.2z"/>
		</g>
		<g>
			<path fill="#FDB886" stroke="#FDB886" stroke-linejoin="round" stroke-miterlimit="10" d="M1006.9,892.8c0.9-5.4-0.4-15.3-4-24
				c-1-2.4,0.6-5.4,2.9-8.4c0.4-0.6,0.8-1.4,0.8-2.4c0-0.9-0.3-2.3-0.2-4.3c0-1.5-2.7-1.7-4.5-3.3c-8.3-7.4-12.6-7.9-17.5-9.1
				c-10.1-2.6-13.1-2-15-4.7c-1.7-3,17.5-12.1,23.6-21.4c1.9-2.8,3.6-5.4,8.9-8.7c5.3-3.4,7.3-3.5,7.3-7.5c0-0.6-0.3-4.4-0.4-4.8
				c-0.7-2.3-3.4,2-10.8,2.8c-8.5,0.9-11.5,0-21.1,2.3c-9.6,2.3-15.9,1.2-20-1.9s-1.9-3.5-10.1-0.1s-23.7,6.2-27.3,5.7
				s-7.7-5.3-14.3-13c-6.7-7.7-11-15-25.2-25c-14.2-10.1-8.8-20.5-8-23.1c0.7-2.6,3.2-3.1,3.2-4.3c0-0.7-0.2-4.9-0.4-5.6
				c-0.3-1.3-3.7,3.1-8.8,3.7c-5.1,0.6-8.3-0.8-7-3.8s0.5-6.4,4.8-9.4c7.9-5.6,8.2-6.3,8.6-8.2s5.7-6.7,7.2-8.3
				c0.8-1,1.5-2.3,1.8-3.7c0.1-0.4,0.2-2.4,0.1-3.7c-0.1-0.9-2.7,1.9-4.8,1.6c-11.5-1.7-29.7-1.2-39.4,2.2c-4,1.4-10,2.6-19.8,4.9
				c-14.6,3.3-26.7,0.2-40.4-1.9c-13.7-2.1-30-7.7-35.3-10.2s-21.4-18.7-25.9-23.2c-4.6-4.5-19.7-15.5-19.7-15.5
				c-3.7-3.3-0.5-5.4,1.7-8.2c2.2-2.7,5-4.7,4.4-6.9c-0.7-2.5,2.2-5.3,2.4-8.8c0.1-1,0.1-4.2-0.4-5.2c-2.2-4.9-4.4-6.3-10.9-7.5
				c-6.5-1.2-19.5,0.4-28.7-1.4c-9.1-1.9-24.4-5-27.9-6.3s-10.6-1.2-27.7-1.8c-17.2-0.6-28.7-16.3-29.3-20.2
				c-0.6-3.9-2.3-13.3-9.8-19c-11.1-7.8-25.5-3.5-26.7-3c-1.2,0.5-1.9-0.1-0.8-0.6c10.4-5.4,23.6-4,33.4,0.9
				c9.8,4.9,11.5,15.2,19.3,19.4c7.7,4.2,16.4,9.7,24.5,8.3c8.1-1.3,19-2.8,27.2-3.2s9.7,0.2,11.1-2.2c1.4-2.4,4.6-3.9,8.6-5.4
				c4-1.5,3.7-0.7,4.8-2.5c0.8-1.3,1.3-2.7,1-5.9c-0.1-0.7-2.5,2.8-3.9,2.4c-19-4.6-22.3-10.1-23.1-10.8c-0.8-0.8-0.6-2.1,1.3-0.9
				c9.2,6.1,12.8,5.5,22.4,7.6c9.6,2.1,18,4.5,23.6,6.4c5.7,2,4,0.1,10.5-1.4c6.5-1.5,19.4-5.5,26.7-8.6c7.3-3.1,10.8-2.4,17.3-3.6
				c6.6-1.2,10.9-1.9,12.6-5.3c1.7-3.4,4-4.3,9.6-5.9c5.6-1.5,39.9-4.8,43.7-4.4c8.2,0.6,11.7-3.3,17.6-4.5
				c5.8-1.2,8.8-2.4,10.5-3.5c1.6-1,7-4.5,10.9-7.4c1.5-1.2,1.4-4.8,1.3-6.2c-0.1-2.2-3.3-1.7-4.6-2.8c-2.2-1.9-5.3-5.2-6.4-5.9
				c-2.7-1.7-4.7-1.5-6.3-2c-1.6-0.5-2.9,0.4-3.8,2.2c-0.9,1.8-3.3,3.1-5.1,3c-1.8-0.2-6.1-0.1-6.1-0.1s-2.1-1-5.4-4.2
				c-3.2-3.2-4.6-7.6-2.7-9.6c1.6-1.6,1.2-5.7,0.9-5.8c-1.6-0.3-8.7,2.5-11.7,2c-3-0.5-2.1-1-7.2,0.3c-5.1,1.3-34.4,1.3-39-0.3
				c-7.2-2.6-32.4-3.2-39.8-3c-7.3,0.2-20.4-1.1-25.5-3.2c-7.8-3.1-14.7-7.8-16-11.6c-2.9-8.6,4.7-12.5,14.5-15.4
				c9.2-2.7,15.7-6.6,16.5-9.5c0.2-0.6,0.2-4.5,0.1-4.7c-1.3-1.9-4-2.2-4.5-5.9c-0.2-1.5-1.6-6,1.1-11.8c1.4-3,3-6.6,3.3-7.8
				c0.1-0.5,0.3-2.9,0-3.5c-1.6-2.7-8.3,1.6-10.3,1.7c-2.2,0-21,2.6-31.5,7c-3.2,1.3-11.4,3.6-15.6,4c-7.9,0.7-11-1.1-16.2-0.6
				c-13.1,1.3-27.4-7.6-28.3-10.3c-0.9-2.7,3.8-4.1,2.7-5.3c-1.1-1.2-3.5-3.1-5-4.5c-1.6-1.4-4.9-0.6-10.2-2.8
				c-8.9-4.1-25.9-5.8-42.9-7.4s-19.1-10.1-18.9-14.2c0.2-4.1-11.2-3.1-23.6-8.5s-12.5-3.8-16.5-1.7c-4,2.1-4.9,4.8-12.4,4.9
				c-14.2,0.4-25.9-24.7-29-32.8c-3.1-8.1-0.8-28.5,14.1-50.6c14.8-22.1,49.6-36,55.2-40c5.5-4,9.5-7.7,18.3-14.4
				c8.8-6.7,10.9-10.5,29.3-21.1c18.4-10.6,29.7-6.5,38.9-1.9c9.1,4.6,10.9,3.7,11.9,2.8c1-1,3.7-3.5,4.6-4.6
				c0.9-1.1,0.5-5.7,0.5-6.9c0-1.1,4.4-2.3,8.3-2.4c3.9-0.1,10.8,0.8,16.1,5c5.4,4.1,11.1,4.3,13.6,3.7c4.5-1.2,3.1-2,13-7.1
				c9.9-5.1,16.6-5.8,17-12.9c0.5-7.2-7.3-14.4,1.4-27.3c8.7-13,15.3-5.5,20-6.3c4.7-0.8,12.4-5.8,18-8.3c5.7-2.5,14.4-2.8,18.9-5.2
				c10.7-5.8,9.5-6.6,11-10.7c2.8-7.9,8.2-6.7,8.2-9.6c0-0.3,0-3.7-0.1-4c-1.7-5.8-18.9-11-44.6-8.7c-13.7,1.2-30.9-9.2-40.1-12.5
				c-17.3-6.2-30.9-15.7-30-19.3c0.6-3.7-1.3-7.2-6.1-9.8c-4.9-2.6-11.3-4.8-11.3-4.8c-4.2-1.7-22.5-9.7-18.2-16.6
				c3.1-5,8-7.7-16.8-26.3c-8.8-6.6-8.3-13.7-17.9-18.5L22.7,341.2l976.8,566.5C999.5,907.8,1005.7,900,1006.9,892.8z"/>
			<path fill="#FEE6C2" stroke="#FDB886" stroke-width="0.5" stroke-linejoin="round" stroke-miterlimit="10" d="M1006.9,888.8
				c0.9-5.4-0.4-15.3-4-24c-1-2.4,0.6-5.4,2.9-8.4c1.3-1.6,1.6-5.1-4-10.1c-8.3-7.4-12.6-7.9-17.5-9.1c-10.1-2.6-13.1-2-15-4.7
				c-1.7-3,17.5-12.1,23.6-21.4c1.9-2.8,3.6-5.4,8.9-8.7c5.3-3.4,7.3-3.5,7.3-7.5s-2.6-2.9-11.1-1.9s-11.5,0-21.1,2.3
				c-9.6,2.3-15.9,1.2-20-1.9s-1.9-3.5-10.1-0.1s-23.7,6.2-27.3,5.7s-7.7-5.3-14.3-13c-6.7-7.7-11-15-25.2-25
				c-14.2-10.1-8.8-20.5-8-23.1s3.2-3.1,3.2-4.3c0-1.1,0.1-1.8-0.9-2.6c-1-0.9-3.2,0.1-8.3,0.8c-5.1,0.6-8.3-0.8-7-3.8
				s0.5-6.4,4.8-9.4c7.9-5.6,8.2-6.3,8.6-8.2s5.7-6.7,7.2-8.3c1.4-1.6,5.3-4.6-2.9-5.8c-11.5-1.7-29.7-1.2-39.4,2.2
				c-4,1.4-10,2.6-19.8,4.9c-14.6,3.3-26.7,0.2-40.4-1.9c-13.7-2.1-30-7.7-35.3-10.2s-21.4-18.7-25.9-23.2
				c-4.6-4.5-19.7-15.5-19.7-15.5c-3.7-3.3-0.5-5.4,1.7-8.2c2.2-2.7,5-4.7,4.4-6.9c-0.8-3.2,4-6.9,1.8-11.8
				c-2.2-4.9-4.2-8.5-10.7-9.7c-6.5-1.2-19.5,0.4-28.7-1.4c-9.1-1.9-24.4-5-27.9-6.3s-10.6-1.2-27.7-1.8
				c-17.2-0.6-28.7-16.3-29.3-20.2c-0.6-3.9-2.3-13.3-9.8-19c-11.1-7.8-25.5-3.5-26.7-3c-1.2,0.5-1.9-0.1-0.8-0.6
				c10.4-5.4,23.6-4,33.4,0.9c9.8,4.9,11.5,15.2,19.3,19.4c7.7,4.2,16.4,9.7,24.5,8.3c8.1-1.3,19-2.8,27.2-3.2s9.7,0.2,11.1-2.2
				c1.4-2.4,4.6-3.9,8.6-5.4c4-1.5,3.7-0.7,4.8-2.5c1.1-1.8,2.6-1.8-3-3.4c-19-4.6-22.3-10.1-23.1-10.8c-0.8-0.8-0.6-2.1,1.3-0.9
				c9.2,6.1,12.8,5.5,22.4,7.6c9.6,2.1,18,4.5,23.6,6.4c5.7,2,4,0.1,10.5-1.4c6.5-1.5,19.4-5.5,26.7-8.6c7.3-3.1,10.8-2.4,17.3-3.6
				c6.6-1.2,10.9-1.9,12.6-5.3c1.7-3.4,4-4.3,9.6-5.9c5.6-1.5,39.9-4.8,43.7-4.4c8.2,0.6,11.7-3.3,17.6-4.5
				c5.8-1.2,8.8-2.4,10.5-3.5c1.6-1,7-4.5,10.9-7.4c3.9-2.9-1.1-7.1-3.3-8.9c-2.2-1.9-5.3-5.2-6.4-5.9c-2.7-1.7-4.7-1.5-6.3-2
				c-1.6-0.5-2.9,0.4-3.8,2.2c-0.9,1.8-3.3,3.1-5.1,3c-1.8-0.2-6.1-0.1-6.1-0.1s-2.1-1-5.4-4.2c-3.2-3.2-4.6-7.6-2.7-9.6
				c1.9-2,1.3-2.1-0.3-2.4c-1.6-0.3-7.5-0.9-10.5-1.4c-3-0.5-2.1-1-7.2,0.3c-5.1,1.3-34.4,1.3-39-0.3c-7.2-2.6-32.4-3.2-39.8-3
				c-7.3,0.2-20.4-1.1-25.5-3.2c-7.8-3.1-14.7-7.8-16-11.6c-2.9-8.6,4.7-12.5,14.5-15.4c11.1-3.3,18.3-8.2,16.2-11.2
				c-1.2-1.9-3.6-4.9-4.2-8.9c-0.2-1.5-1.6-6,1.1-11.8c1.4-3,4-6.8,3.3-7.8c-1.9-2.9-8.1-1.9-10.3-1.9c-2.2,0-21,2.6-31.5,7
				c-3.2,1.3-11.4,3.6-15.6,4c-7.9,0.7-11-1.1-16.2-0.6c-13.1,1.3-27.4-7.6-28.3-10.3c-0.9-2.7,3.8-4.1,2.7-5.3
				c-1.1-1.2-3.5-3.1-5-4.5c-1.6-1.4-4.9-0.6-10.2-2.8c-8.9-4.1-25.9-5.8-42.9-7.4c-17-1.6-19.1-10.1-18.9-14.2
				c0.2-4.1-11.2-3.1-23.6-8.5s-12.5-3.8-16.5-1.7c-4,2.1-4.9,4.8-12.4,4.9c-14.2,0.4-25.9-24.7-29-32.8
				c-3.1-8.1-0.8-28.5,14.1-50.6c14.8-22.1,49.6-36,55.2-40c5.5-4,9.5-7.7,18.3-14.4c8.8-6.7,10.9-10.5,29.3-21.1
				c18.4-10.6,29.7-6.5,38.9-1.9c9.1,4.6,10.9,3.7,11.9,2.8c1-1,3.7-3.5,4.6-4.6c0.9-1.1,0.5-5.7,0.5-6.9c0-1.1,4.4-2.3,8.3-2.4
				c3.9-0.1,10.8,0.8,16.1,5c5.4,4.1,11.1,4.3,13.6,3.7c4.5-1.2,3.1-2,13-7.1c9.9-5.1,16.6-5.8,17-12.9c0.5-7.2-7.3-14.4,1.4-27.3
				c8.7-13,15.3-5.5,20-6.3c4.7-0.8,12.4-5.8,18-8.3c5.7-2.5,14.4-2.8,18.9-5.2c10.7-5.8,9.5-6.6,11-10.7c2.8-7.9,8.2-6.7,8.2-9.6
				c0.1-5.8-17.5-15.2-44.7-12.7c-13.7,1.2-30.9-9.2-40.1-12.5c-17.3-6.2-30.9-15.7-30-19.3c0.6-3.7-1.3-7.2-6.1-9.8
				s-11.3-4.8-11.3-4.8c-4.2-1.7-22.5-9.7-18.2-16.6c3.1-5,8-7.7-16.8-26.3c-8.8-6.6-8.3-13.7-17.9-18.5l-557.7,323l976.3,565.4
				C999.5,906.8,1005.7,895.9,1006.9,888.8z"/>
			<path fill="#FDB886" d="M988.1,873.3c0.5-0.6,0.8-1.4,0.9-2.1c0.1-1.2,0.4-3.6,0-5c-0.8-3.1-2.6-5.3-0.4-8.5
				c1.1-1.6,2.5-3.4,2.7-5.2c0.1-1.1,0.7-5-0.6-6c-3-2.2-11.1-3-19.4-3.5c-9.5-0.5-11.2-1.5-12.3-4.7c-1.1-3.2,6.2-8.9,12.9-12.4
				c5.2-2.8,3.2-3.2,10-9.9c1.4-1.3,2.5-2.6,2.6-3.6c0-0.4,0.7-3.3,0.1-4.2c-0.6-0.9-3.9,2.4-7.2,2.4c-10.1-0.1-14.2,1.3-27.5-2.2
				c-13.4-3.5-26.5,2.2-35.3,3.2c-8.7,1.1-13.8-7.4-23.7-19.3c-9.9-11.8-12.3-19.8-28-28c-7.4-3.9-13.3-14-11.4-19.2
				c1.8-5.3-11.6-8.2-9-12.9c2.6-4.8,6.2-8.5,11.5-12.6c3.6-2.8,6-4.3,6.2-5.5c0.1-0.5,0.6-4.4-0.4-4.9c-3.1-1.7-13.2,2.8-22.5,5.1
				s-10.1,7.6-23.6,8.1c-13.4,0.5-28.1-10.6-52-13.5c-23.9-2.9-45.6-18.4-49.7-25.7c-4.1-7.3-17.9-22.4-26.8-29.3
				c-10.9-8.4-10.9-16.5-16.8-21.2c-5.9-4.7-36-5-44.7-6.1c-8.7-1.1-29.5-7.3-40.6-15.4c-11.1-8.1-14.8-19.2-16.5-26.2
				c-1.7-6.9-4.7-9.2-12.3-11.4c-7.6-2.2-17.1,1.5-20.3,0.2s-3.5-3,1.7-6.8c5.2-3.9,11.4-6.3,23.1-7.7c11.7-1.4,23.5,3.1,29.5,6.7
				c6,3.6,15,13.9,24.7,18.7c9.7,4.8,16.5,1,28.3-0.1c7.4-0.7,11.6-2.2,11.8-3.9c0.1-1.1,1.4-4.9-1.6-6.1
				c-8.2-3.2-11.5-3.9-12.8-6.6c-1.2-2.7,1.6-6.7,9.5-3.3c12,5.4,16.3,4.5,25.5,6.2c9.1,1.7,11-2.2,15.3-8.6s14.3-9.2,31.6-10.2
				c17.3-1,31.9-2.6,37.8-7.6c5.9-5,16.9-7.8,18.4-15.5c0.1-0.8,0.6-4.4-0.1-5.2c-4.3-4.4-22.3-6-35-7.4c-15-1.6-42.4-0.3-55.1-4.4
				c-12.7-4.1-5-8.2-29.8-11.5c-16.2-2.2-22-8-21.7-14.2c0.2-5.2,6.3-5.6,14.3-7.2c8-1.6,9.9-1.7,15.6-4
				c21.3-8.5,14.2-21.1,10.5-23.1c-5.6-3.1-15.7-1.3-22.5,0c-6.8,1.3-12-2.2-18.9-0.4c-13.2,3.7-34.8-5.6-40.6-10.9
				c-5.8-5.2-16.6-12.7-33-13.5c-16.4-0.8-33.1-2.9-37.5-11.8c-4.3-8.9-10.4-9.3-21-13.3c-10.6-4-7.5-0.9-20.8,3.4
				c-13.2,4.4-36.2-18-40.5-28.1c-4.1-9.5-20.8-8.4-29.1-20.3c-19.8-27.9-33.5-56.5-3.2-87.1c30.3-30.5,91-42.4,105.2-45.6
				c14.2-3.2,27.1,4,38.1,0.3c11-3.7,25.4-9.5,30.1-9.7s12,2.4,17.6,3.1c5.5,0.7,7.5-1.5,10-3.5c2.5-2,7.5-7.7,19.1-5.3
				c11.6,2.4,14,3.3,19.3,2.9c9.1-0.7,14-4,18.9-9.1c3.5-3.7-1.5-8.2,2.5-15.4c9.5-17,30-22.9,37.2-24.1c4.6-0.8,26.5-11,27.1-16.7
				c0.1-0.5,0-2.5-0.5-3.1c-9.6-11.9-40.1-4.8-64.9-17.7c-25.5-13.3-16.5-18.2-31.1-29.1c-14.6-10.8-25.4-11.3-31.2-24.7
				c-6.8-15.6-9.7-21.9-42.9-40.1L22.7,341.3l956.9,553.6C981.5,890.1,985,877.2,988.1,873.3z"/>
			<path fill="#FEE6C2" stroke="#FDB886" stroke-width="0.5" stroke-linejoin="round" stroke-miterlimit="10" d="M988.1,869.3
				c3.1-3.9-3.3-10.1,0.5-15.7c1.8-2.6,4.4-5.7,1-8.2c-3-2.2-10-6-18.3-6.4c-9.5-0.5-11.2-1.5-12.3-4.7c-1.1-3.2,6.2-8.9,12.9-12.4
				c5.2-2.8,3.2-3.2,10-9.9c2.8-2.8,5.6-5.3-4.5-5.4c-10.1-0.1-14.2,1.3-27.5-2.2c-13.4-3.5-26.5,2.2-35.3,3.2
				c-8.7,1.1-13.8-7.4-23.7-19.3c-9.9-11.8-12.3-19.8-28-28c-7.4-3.9-13.3-14-11.4-19.2s-11.6-8.2-9-12.9c2.6-4.8,6.2-8.5,11.5-12.6
				c5.3-4.1,8-5.3,4.9-7c-3.1-1.7-12.3-0.5-21.5,1.8s-10.1,7.6-23.6,8.1c-13.4,0.5-28.1-10.6-52-13.5c-23.9-2.9-45.6-18.4-49.7-25.7
				c-4.1-7.3-17.9-22.4-26.8-29.3c-10.9-8.4-10.9-16.5-16.8-21.2c-5.9-4.7-36-5-44.7-6.1c-8.7-1.1-29.5-7.3-40.6-15.4
				c-11.1-8.1-14.8-19.2-16.5-26.2c-1.7-6.9-4.7-9.2-12.3-11.4c-7.6-2.2-17.1,1.5-20.3,0.2c-3.2-1.3-3.5-3,1.7-6.8
				c5.2-3.9,11.4-6.3,23.1-7.7c11.7-1.4,23.5,3.1,29.5,6.7c6,3.6,15,13.9,24.7,18.7c9.7,4.8,16.5,1,28.3-0.1
				c11.8-1.1,15.7-4.2,7.5-7.4c-8.2-3.2-8.8-6.5-10.1-9.3c-1.2-2.7,1.6-6.7,9.5-3.3c12,5.4,16.3,4.5,25.5,6.2
				c9.1,1.7,11-2.2,15.3-8.6s14.3-9.2,31.6-10.2c17.3-1,31.9-2.6,37.8-7.6c5.9-5,16.9-7.8,18.4-15.5c1-5.2-20.2-10.9-35.2-12.5
				s-42.4-0.3-55.1-4.4c-12.7-4.1-5-8.2-29.8-11.5c-16.2-2.2-22-8-21.7-14.2c0.2-5.2,6.3-5.6,14.3-7.2c8-1.6,9.9-1.7,15.6-4
				c21.3-8.5,14.2-21.1,10.5-23.1c-5.6-3.1-15.7-1.3-22.5,0c-6.8,1.3-12-2.2-18.9-0.4c-13.2,3.7-34.8-5.6-40.6-10.9
				c-5.8-5.2-16.6-12.7-33-13.5c-16.4-0.8-33.1-2.9-37.5-11.8c-4.3-8.9-10.4-9.3-21-13.3c-10.6-4-7.5-0.9-20.8,3.4
				c-13.2,4.4-36.2-18-40.5-28.1c-4.1-9.5-20.8-8.4-29.1-20.3c-19.8-27.9-33.5-56.5-3.2-87.1c30.3-30.5,91-42.4,105.2-45.6
				c14.2-3.2,27.1,4,38.1,0.3c11-3.7,25.4-9.5,30.1-9.7s12,2.4,17.6,3.1c5.5,0.7,7.5-1.5,10-3.5c2.5-2,7.5-7.7,19.1-5.3
				c11.6,2.4,14,3.3,19.3,2.9c9.1-0.7,14-4,18.9-9.1c3.5-3.7-1.5-8.2,2.5-15.4c9.5-17,30-22.9,37.2-24.1
				c4.6-0.8,30.9-10.7,26.2-16.6c-9.8-12.3-38.9-7.6-64.4-20.9s-16.5-18.2-31.1-29.1c-14.6-10.8-25.4-11.3-31.2-24.7
				c-6.8-15.6-9.7-21.9-42.9-40.1L22.7,341.2l955.2,553.2C979.8,889.6,985,873.2,988.1,869.3z"/>
			<path fill="#FDB886" d="M973.6,862.9c7.1-10.4-1.3-17.7-8.6-17.5c-18.3,1-19.6-9-12.2-14.7c5-3.8,10.7-6.4,10.8-9.3
				c0-1.1,0.9-5.1-0.8-6.4c-6.3-4.8-22.5-3.2-47.5,1.2c-25,4.4-42.9-23-47.4-30.1s-9.5-15.8-17.3-20.9s-16.5-10.7-16.3-22.4
				c0.3-16.2-12.8-15.1-25-15.6c-12.2-0.6-19.7-7.6-42.1-8.4c-22.4-0.8-51.5-12.1-56.3-19.8c-4.8-7.7-24.7-24.8-36.5-32.8
				c-11.8-8-12.5-21.5-24.4-25.9c-11.8-4.4-34.9-1.9-54.3-11.1c-19.4-9.1-36.5-31.8-37.2-39.8c-0.7-8-5.3-12.8-15.5-12.2
				c-10.2,0.6-18.8,1.9-23.9-4.3c-5.1-6.2,7.6-17.9,36.2-22.9c28.6-5,57.3,21,62.7,23.9c3.7,2,10.4,3.3,11.9,0.8
				c0.7-1.2,1.3-5.7-0.9-8.8c-1.5-2.1-3.3-1.6-3.4-3.4c-0.5-6.6,7.2-10.4,16.6-6.8c12,4.7,10.2,4.2,24.7-5.7
				c14.5-9.9,39.8-6.1,47.6-12.1c1.4-1,2.1-1.9,2.1-2.7c0-0.9,1-4.5-0.8-5.5c-2.2-1.4-7.6-0.3-12.9-2.8
				c-13.7-6.2-38.6-11.4-66.1-13.8c-27.5-2.4-40.6-10.8-48.5-20.3c-7.9-9.5,0.1-9.9,18.7-16.6c7.7-2.8,10.5-5.5,10.8-7.8
				c0.2-1.4,0.5-5.3-0.5-6.4c-1.6-1.6-5-0.1-6.8-0.8c-5.3-2.1-19.1-4.8-25-5.5c-5.9-0.8-10.7-5.2-21.6-8.9
				c-10.9-3.6-29.6-4.8-41.3-12.9c-11.7-8.1-18.1-10.9-27.6-13c-9.5-2.1-12.8,2.5-33.2-1c-20.4-3.4-17.4-14.3-63.8-30.5
				c-46.4-16.2-64.5-44.6-58.6-61.7c5.9-17.2-22-61.2,16.5-72.4c38.5-11.2,71.7-27.4,86.4-36.7c14.6-9.2,15.1-10.9,33.2-16.2
				c18.1-5.3,27-2.3,34.7-1c7.7,1.2,22.1,0.8,32.7-1.4c5.4-1.1,17-5.6,23.3-7.3c16.8-4.6,31.5,4.6,49.2-0.3
				c13.8-3.8,22.5-11.4,29.8-19.3c8.1-8.9,25-12.9,30.7-15.3c4.3-1.8,4.6-6.6,4.1-9.5c-0.9-5-9.5-6.7-11.8-8
				c-10.3-5.9-21.8-11.4-30.1-19.6c-8.2-8.2-11.2-17-21.7-24.4c-10.5-7.4-27-15.4-32.6-30.7c0,0-3.6-16.9-36.3-23.9l-524,300.7
				l933,540.2C956.4,882.7,966.5,873.3,973.6,862.9z"/>
			<path fill="#FEE6C2" stroke="#FDB886" stroke-width="0.5" stroke-linejoin="round" stroke-miterlimit="10" d="M973.6,858.9
				c7.1-10.4-1.3-17.7-8.6-17.5c-18.3,1-19.6-9-12.2-14.7c6.8-5.2,14.8-8,8.5-12.8c-6.3-4.8-21-6.1-46-1.7
				c-25,4.4-42.9-23-47.4-30.1s-9.5-15.8-17.3-20.9s-16.5-10.7-16.3-22.4c0.3-16.2-12.8-15.1-25-15.6c-12.2-0.6-19.7-7.6-42.1-8.4
				c-22.4-0.8-51.5-12.1-56.3-19.8c-4.8-7.7-24.7-24.8-36.5-32.8c-11.8-8-12.5-21.5-24.4-25.9c-11.8-4.4-34.9-1.9-54.3-11.1
				c-19.4-9.1-36.5-31.8-37.2-39.8c-0.7-8-5.3-12.8-15.5-12.2c-10.2,0.6-18.8,1.9-23.9-4.3c-5.1-6.2,7.6-17.9,36.2-22.9
				c28.6-5,57.3,21,62.7,23.9c5.4,3,17.1,4.4,10-5.4c-7.1-9.8,2.1-17.4,14.1-12.8c12,4.7,10.2,4.2,24.7-5.7
				c14.5-9.9,39.8-6.1,47.6-12.1c4.5-3.5,2-4.8-11.6-11c-13.7-6.2-38.6-11.4-66.1-13.8c-27.5-2.4-40.6-10.8-48.5-20.3
				c-7.9-9.5,0.1-9.9,18.7-16.6c18.6-6.8,8.7-12.9,3.4-15c-5.3-2.1-19.1-4.8-25-5.5c-5.9-0.8-10.7-5.2-21.6-8.9
				c-10.9-3.6-29.6-4.8-41.3-12.9c-11.7-8.1-18.1-10.9-27.6-13c-9.5-2.1-12.8,2.5-33.2-1c-20.4-3.4-17.4-14.3-63.8-30.5
				c-46.4-16.2-64.5-44.6-58.6-61.7c5.9-17.2-22-61.2,16.5-72.4c38.5-11.2,71.7-27.4,86.4-36.7c14.6-9.2,15.1-10.9,33.2-16.2
				c18.1-5.3,27-2.3,34.7-1c7.7,1.2,22.1,0.8,32.7-1.4c5.4-1.1,17-5.6,23.3-7.3c16.8-4.6,31.5,4.6,49.2-0.3
				c13.8-3.8,22.5-11.4,29.8-19.3c8.1-8.9,25.3-12.3,30.7-15.3c11.5-6.4-4.4-15.5-7.7-17.4c-10.3-5.9-21.8-11.4-30.1-19.6
				c-8.2-8.2-11.2-17-21.7-24.4c-10.5-7.4-27-15.4-32.6-30.7c0,0-3.6-16.9-36.3-23.9l-524,303.5l932,539.8
				C955.4,881.1,966.5,869.3,973.6,858.9z"/>
			<path fill="#FDB886" d="M936,842.5c3.2-10.4-4.3-13.9-22.4-16.6c-18.1-2.7-23.1-6.3-35.1-14.8c-12-8.5-23.2-16.1-28.8-27.2
				s-20.8-18.2-21.8-32.1c-1.2-17.3-18-18.8-59.5-24.3s-54.7-16.4-64.8-24c-10.1-7.5-32.8-31-46.3-44.2
				c-13.5-13.2-28.2-13.5-55.2-19.2c-27-5.7-45.5-28.8-51.7-45c-6.3-16.2-17.6-5.1-48-18c-30.3-13-11-30.1,15-38.8
				c26-8.8,57.4,0,68.2,3.4c10.9,3.4,23.4,9.5,33.4,3.9c10-5.7,13.2-6.1,28.9-9.8c7.5-1.8,9.9-3.6,10-5.3c0-1.8,0.7-5.3-1.5-6.4
				c-4.2-2.2-31.4-2.9-58.1-6.5c-26.7-3.6-65.1-17.7-58.5-27.2c6.6-9.5,18.8-12.4,16.2-22.3c-2.6-9.9-36.6-14.3-46.5-22.7
				c-9.9-8.4-25.4-7.1-54.4-13.9c-29-6.9-39.6-17.2-70.9-20c-74.8-5.2-104.5-47.9-93.6-82.8c10.9-34.9,10.2-69.7,38.2-88.2
				c28-18.5,69.9-24.1,103.2-42.9c33.3-18.9,45-10.7,59.3-8.9c10.2,1.3,31.4-5.1,38.3-12.2c8.9-9.1,21-17,48-16.9
				c26.9,0.1,36.6-6.3,43-11.2c5.5-4.2,9.1-13-1.2-22.2c-6.5-5.7-29.8-11-38.6-18.3c-13.6-11.4-17.3-12.9-12.6-30.5
				c0,0-1.1-19.1-32.3-28.7L23.6,342.1l7.6,4.4l904.7,523.9C940.8,863.3,933.7,849.9,936,842.5z"/>
			<path fill="#FEE6C2" stroke="#FDB886" stroke-width="0.5" stroke-linejoin="round" stroke-miterlimit="10" d="M936,838.5
				c3.2-10.4-4.3-13.9-22.4-16.6c-18.1-2.7-23.1-6.3-35.1-14.8c-12-8.5-23.2-16.1-28.8-27.2s-20.8-18.2-21.8-32.1
				c-1.2-17.3-18-18.8-59.5-24.3s-54.7-16.4-64.8-24c-10.1-7.5-32.8-31-46.3-44.2c-13.5-13.2-28.2-13.5-55.2-19.2
				c-27-5.7-45.5-28.8-51.7-45c-6.3-16.2-17.6-5.1-48-18c-30.3-13-11-30.1,15-38.8c26-8.8,57.4,0,68.2,3.4
				c10.9,3.4,23.4,9.5,33.4,3.9c10-5.7,13.2-6.1,28.9-9.8c15.7-3.7,9.2-7.6,5.1-9.9c-4.2-2.2-28-4.7-54.7-8.4
				c-26.7-3.6-65.1-17.7-58.5-27.2c6.6-9.5,18.8-12.4,16.2-22.3c-2.6-9.9-36.6-14.3-46.5-22.7c-9.9-8.4-25.4-7.1-54.4-13.9
				c-29-6.9-39.6-17.2-70.9-20c-74.8-5.2-104.5-47.9-93.6-82.8c10.9-34.9,10.2-69.7,38.2-88.2c28-18.5,69.9-24.1,103.2-42.9
				c33.3-18.9,45-10.7,59.3-8.9c10.2,1.3,31.4-5.1,38.3-12.2c8.9-9.1,21-17,48-16.9c26.9,0.1,36.6-6.3,43-11.2
				c5.5-4.2,9.1-13-1.2-22.2c-6.5-5.7-29.8-11-38.6-18.3c-13.6-11.4-17.3-12.9-12.6-30.5c0,0-1.1-19.1-32.3-28.7L23.6,341.1
				l912.3,528.3C940.8,862.4,933.7,845.9,936,838.5z"/>
		</g>
	</g>
</g>
<g id="écran_aléas">
</g>
</svg>
