<?xml version="1.0" encoding="utf-8"?>
<!-- Generator: Adobe Illustrator 17.1.0, SVG Export Plug-In . SVG Version: 6.00 Build 0)  -->
<!DOCTYPE svg PUBLIC "-//W3C//DTD SVG 1.1//EN" "http://www.w3.org/Graphics/SVG/1.1/DTD/svg11.dtd">
<svg version="1.1" xmlns="http://www.w3.org/2000/svg" xmlns:xlink="http://www.w3.org/1999/xlink" x="0px" y="0px"
	 viewBox="0 0 46.2 46.7" enable-background="new 0 0 46.2 46.7" xml:space="preserve">
<g id="Calque_1">
</g>
<g id="Calque_2" display="none">
</g>
<g id="Calque_5" display="none">
</g>
<g id="Calque_6">
</g>
<g id="repères">
</g>
<g id="numéro_x2F_lettres">
</g>
<g id="pions">
	<g>
		<path fill="#FFAF24" d="M10.6,18.5h3c0.3-1.9,0.9-3.7,1.7-5.2c0.8-1.6,1.7-2.9,2.8-4c1.1-1.1,2.3-1.9,3.7-2.5s2.9-0.9,4.5-0.9
			c2.1,0,3.9,0.4,5.4,1.3c1.5,0.8,2.8,2,3.8,3.4l-2,2.2c-0.2,0.2-0.3,0.3-0.5,0.5c-0.2,0.1-0.4,0.2-0.7,0.2c-0.2,0-0.4-0.1-0.6-0.2
			c-0.2-0.1-0.4-0.3-0.6-0.5c-0.2-0.2-0.4-0.4-0.7-0.6c-0.3-0.2-0.6-0.4-0.9-0.6c-0.4-0.2-0.8-0.3-1.3-0.5c-0.5-0.1-1.1-0.2-1.7-0.2
			c-1.8,0-3.3,0.6-4.5,1.9c-1.2,1.3-2.1,3.2-2.6,5.7h11.4v1.8c0,0.4-0.1,0.7-0.4,1c-0.3,0.3-0.7,0.5-1.1,0.5H19c0,0.3,0,0.5,0,0.8
			s0,0.5,0,0.8c0,0.2,0,0.4,0,0.6c0,0.2,0,0.4,0,0.5h9.6v1.8c0,0.4-0.1,0.7-0.4,1s-0.7,0.5-1.1,0.5h-7.8c0.4,2.7,1.2,4.7,2.4,6.1
			c1.2,1.3,2.7,2,4.5,2c1.1,0,2-0.2,2.6-0.5s1.2-0.7,1.6-1c0.4-0.4,0.8-0.7,1-1c0.3-0.3,0.6-0.5,0.9-0.5c0.2,0,0.3,0,0.4,0.1
			c0.1,0.1,0.3,0.2,0.4,0.3l2.4,2.3c-1.1,1.7-2.4,3-4,3.9c-1.6,0.9-3.5,1.4-5.7,1.4c-1.8,0-3.4-0.3-4.8-0.9
			c-1.4-0.6-2.6-1.5-3.7-2.6c-1-1.1-1.9-2.5-2.6-4.1s-1.1-3.4-1.4-5.4h-2.9v-3.2h2.6c0-0.2,0-0.4,0-0.5c0-0.2,0-0.4,0-0.6
			c0-0.3,0-0.5,0-0.8s0-0.5,0-0.8h-2.6V18.5z"/>
	</g>
</g>
<g id="écran_aléas">
</g>
</svg>
