<?xml version="1.0" encoding="utf-8"?>
<!-- Generator: Adobe Illustrator 17.1.0, SVG Export Plug-In . SVG Version: 6.00 Build 0)  -->
<!DOCTYPE svg PUBLIC "-//W3C//DTD SVG 1.1//EN" "http://www.w3.org/Graphics/SVG/1.1/DTD/svg11.dtd">
<svg version="1.1" xmlns="http://www.w3.org/2000/svg" xmlns:xlink="http://www.w3.org/1999/xlink" x="0px" y="0px"
	 viewBox="0 0 253.9 236.8" enable-background="new 0 0 253.9 236.8" xml:space="preserve">
<g id="Calque_1">
</g>
<g id="Calque_2" display="none">
</g>
<g id="Calque_5" display="none">
</g>
<g id="Calque_6">
</g>
<g id="repères">
</g>
<g id="numéro_x2F_lettres">
</g>
<g id="pions">
</g>
<g id="écran_aléas">
	<g>
		<g>
			<path fill="#FFAF24" d="M164.2,114c-2.1,0-3.9-1.5-4.1-3.6l-4.5-31.7c-0.2-1.1,0.1-2.2,0.8-3.1c0.7-0.9,1.7-1.5,2.8-1.6l33.4-4.7
				c2.3-0.3,4.4,1.3,4.7,3.6l4.5,31.7c0.2,1.1-0.1,2.2-0.8,3.1c-0.7,0.9-1.7,1.5-2.8,1.6l-33.4,4.7C164.6,114,164.4,114,164.2,114z
				 M164.4,81.6l3.3,23.4l25.1-3.6l-3.3-23.4L164.4,81.6z"/>
		</g>
		<g>
			<path fill="#FFAF24" d="M116,120.9c-0.9,0-1.8-0.3-2.5-0.8c-0.9-0.7-1.5-1.7-1.6-2.8l-4.5-31.7c-0.3-2.3,1.3-4.4,3.6-4.7
				l33.4-4.7c2.3-0.3,4.4,1.3,4.7,3.6l4.5,31.7c0.2,1.1-0.1,2.2-0.8,3.1c-0.7,0.9-1.7,1.5-2.8,1.6l-33.4,4.7
				C116.4,120.9,116.2,120.9,116,120.9z M116.2,88.6l3.3,23.4l25.1-3.6l-3.3-23.4L116.2,88.6z"/>
		</g>
		<g>
			<path fill="#FFAF24" d="M157.9,68c-2.1,0-3.9-1.5-4.1-3.6l-4.5-31.7c-0.3-2.3,1.3-4.4,3.6-4.7l33.4-4.7c2.3-0.3,4.4,1.3,4.7,3.6
				l4.5,31.7c0.2,1.1-0.1,2.2-0.8,3.1c-0.7,0.9-1.7,1.5-2.8,1.6l-33.4,4.7C158.3,68,158.1,68,157.9,68z M158.1,35.7l3.3,23.4
				l25.1-3.6l-3.3-23.4L158.1,35.7z"/>
		</g>
		<g>
			<path fill="#FFAF24" d="M109.7,75c-2,0-3.8-1.5-4.1-3.6l-4.5-31.7c-0.2-1.1,0.1-2.2,0.8-3.1c0.7-0.9,1.7-1.5,2.8-1.6l33.4-4.7
				c2.3-0.3,4.4,1.3,4.7,3.6l4.5,31.7c0.2,1.1-0.1,2.2-0.8,3.1c-0.7,0.9-1.7,1.5-2.8,1.6l-33.4,4.7C110.1,74.9,109.9,75,109.7,75z
				 M109.9,42.6l3.3,23.4l25.1-3.6L135,39.1L109.9,42.6z"/>
		</g>
		<g>
			<path fill="#FFAF24" d="M59,136.7c-2,0-3.8-1.5-4.1-3.6l-3.2-22.8c-0.2-1.1,0.1-2.2,0.8-3.1c0.7-0.9,1.7-1.5,2.8-1.6l24-3.4
				c2.3-0.3,4.4,1.3,4.7,3.6l3.2,22.8c0.2,1.1-0.1,2.2-0.8,3.1c-0.7,0.9-1.7,1.5-2.8,1.6l-24,3.4C59.4,136.7,59.2,136.7,59,136.7z
				 M60.5,113.3l2.1,14.5l15.7-2.2L76.2,111L60.5,113.3z"/>
		</g>
		<g>
			<path fill="#FFAF24" d="M200.1,213.6H40.5c-2,0-3.7-1.4-4.1-3.3l-13.3-64.6c-0.2-1.1,0-2.3,0.7-3.3c0.7-0.9,1.7-1.6,2.8-1.7
				l10.7-1.5l-6.1-42.6c-0.2-1.1,0.1-2.2,0.8-3.1c0.7-0.9,1.7-1.5,2.8-1.6l59.7-8.5c1.1-0.1,2.2,0.1,3.1,0.8
				c0.9,0.7,1.5,1.7,1.6,2.8l6,42.6l120.9-17.3c1.4-0.2,2.8,0.3,3.7,1.4c0.9,1.1,1.3,2.5,0.9,3.9l-26.6,93.1
				C203.6,212.4,202,213.6,200.1,213.6z M43.9,205.2H197l24-83.9l-118.7,17c-1.1,0.2-2.2-0.1-3.1-0.8c-0.9-0.7-1.5-1.7-1.6-2.8
				l-6-42.6l-51.4,7.3l6.1,42.6c0.3,2.3-1.3,4.4-3.6,4.7l-10.5,1.5L43.9,205.2z"/>
		</g>
		<g>
			<path fill="#FFAF24" d="M54.4,96.7c-2.1,0-3.9-1.5-4.1-3.6l-3.1-22c-0.3-2.3,1.3-4.4,3.6-4.7c2.3-0.3,4.4,1.3,4.7,3.6l3.1,22
				c0.3,2.3-1.3,4.4-3.6,4.7C54.8,96.7,54.6,96.7,54.4,96.7z"/>
		</g>
		<g>
			<path fill="#FFAF24" d="M71.4,94.5c-2,0-3.9-1.5-4.1-3.6l-3.1-22c-0.3-2.3,1.3-4.4,3.6-4.7c2.3-0.3,4.4,1.3,4.7,3.6l3.1,22
				c0.3,2.3-1.3,4.4-3.6,4.7C71.8,94.4,71.6,94.5,71.4,94.5z"/>
		</g>
	</g>
</g>
</svg>
