<?xml version="1.0" encoding="utf-8"?>
<!-- Generator: Adobe Illustrator 17.1.0, SVG Export Plug-In . SVG Version: 6.00 Build 0)  -->
<!DOCTYPE svg PUBLIC "-//W3C//DTD SVG 1.1//EN" "http://www.w3.org/Graphics/SVG/1.1/DTD/svg11.dtd">
<svg version="1.1" xmlns="http://www.w3.org/2000/svg" xmlns:xlink="http://www.w3.org/1999/xlink" x="0px" y="0px"
	 viewBox="0 0 140 140" enable-background="new 0 0 140 140" xml:space="preserve">
<g id="Calque_1">
</g>
<g id="Calque_2" display="none">
</g>
<g id="Calque_5" display="none">
</g>
<g id="Calque_6">
</g>
<g id="repères">
</g>
<g id="numéro_x2F_lettres">
</g>
<g id="pions">
	<g>
		<path fill="#FFFFFF" d="M45.7,67.9c3.9,0,7.6-1.5,10.5-4C59.3,67,63.7,69,68.5,69c4.8,0,9.1-1.9,12.2-5c2.9,2.7,6.6,4.2,10.6,4.2
			c8.6,0,15.5-7,15.5-15.5c0-8.6-7-15.5-15.5-15.5c-3.5,0-6.9,1.2-9.6,3.3c-3.2-3.7-7.9-6.1-13.2-6.1c-5.1,0-9.7,2.2-12.9,5.8
			c-2.8-2.3-6.2-3.5-9.9-3.5c-8.6,0-15.7,7-15.7,15.7C30.1,60.8,37.1,67.9,45.7,67.9z M91.3,42.1c5.8,0,10.5,4.7,10.5,10.5
			c0,5.8-4.7,10.5-10.5,10.5c-2.9,0-5.6-1.2-7.5-3.2c1.4-2.5,2.1-5.3,2.1-8.3c0-2.5-0.5-4.8-1.5-6.9C86.3,43,88.7,42.1,91.3,42.1z
			 M68.5,39.3c6.8,0,12.3,5.5,12.3,12.3S75.3,64,68.5,64s-12.3-5.5-12.3-12.3S61.7,39.3,68.5,39.3z M45.7,41.5c2.7,0,5.2,1,7.1,2.7
			c-1.1,2.2-1.7,4.7-1.7,7.4c0,2.9,0.7,5.7,2,8.1c-2,2-4.6,3.1-7.5,3.1c-5.9,0-10.7-4.8-10.7-10.7C35.1,46.3,39.8,41.5,45.7,41.5z"
			/>
		<path fill="#FFFFFF" d="M92.5,72.3c-4.7,0-8.8,1.2-12,3.4c-3-2.1-6.9-3.4-12-3.4c-4.5,0-8,1-10.8,2.6c-3.3-2.5-7.5-3.7-12.4-3.7
			c-16,0-20.3,13.2-20.3,20.3V99h5v-7.6c0-0.6,0.2-15.3,15.3-15.3c3.3,0,6,0.7,8.3,2C48.2,84.1,48,92.4,48,92.5v8.5h5v-8.5
			c0,0,0.1-4,2.1-7.9c2.5-4.9,7-7.4,13.3-7.4s10.9,2.5,13.4,7.4c2,3.9,2.2,7.9,2.2,7.9v8.5h5v-8.5c0-3.7-1.3-9-4.7-13.3
			c2.2-1.3,4.9-1.9,8.1-1.9c6.3,0,10.9,2.5,13.4,7.4c2,3.9,2.2,7.9,2.2,7.9v7.5h5v-7.5C113,85.5,108.5,72.3,92.5,72.3z"/>
		<path fill="#FFFFFF" d="M70,3.3C33.2,3.3,3.3,33.2,3.3,70s29.9,66.7,66.7,66.7c36.8,0,66.7-29.9,66.7-66.7S106.8,3.3,70,3.3z
			 M70,131.7C36,131.7,8.3,104,8.3,70C8.3,36,36,8.3,70,8.3c34,0,61.7,27.7,61.7,61.7C131.7,104,104,131.7,70,131.7z"/>
	</g>
</g>
<g id="écran_aléas">
</g>
</svg>
