<?xml version="1.0" encoding="utf-8"?>
<!-- Generator: Adobe Illustrator 17.1.0, SVG Export Plug-In . SVG Version: 6.00 Build 0)  -->
<!DOCTYPE svg PUBLIC "-//W3C//DTD SVG 1.1//EN" "http://www.w3.org/Graphics/SVG/1.1/DTD/svg11.dtd">
<svg version="1.1" xmlns="http://www.w3.org/2000/svg" xmlns:xlink="http://www.w3.org/1999/xlink" x="0px" y="0px"
	 viewBox="0 0 140 140" enable-background="new 0 0 140 140" xml:space="preserve">
<g id="Calque_1">
</g>
<g id="Calque_2" display="none">
</g>
<g id="Calque_5" display="none">
</g>
<g id="Calque_6">
</g>
<g id="repères">
</g>
<g id="numéro_x2F_lettres">
</g>
<g id="pions">
	<g>
		<path fill="#FFFFFF" d="M101.1,86.6c-2.1,2.1-8.9,7.6-14.9,7.6c-7.2,0-14.8-7.5-14.9-7.6c-0.4-0.4-9.2-9.1-18.4-9.1
			c-9.3,0-18.1,8.7-18.4,9.1c-1,1-1,2.6,0,3.5c1,1,2.6,1,3.5,0c2.1-2.1,8.9-7.6,14.9-7.6c7.2,0,14.8,7.5,14.9,7.6
			c0.4,0.4,9.2,9.1,18.4,9.1c9.3,0,18.1-8.7,18.4-9.1c1-1,1-2.6,0-3.5C103.6,85.7,102,85.7,101.1,86.6z"/>
		<path fill="#FFFFFF" d="M101.1,70c-0.1,0.1-7.7,7.6-14.9,7.6c-7.2,0-14.8-7.5-14.9-7.6c-0.4-0.4-9.2-9.1-18.4-9.1
			c-9.3,0-18.1,8.7-18.4,9.1c-1,1-1,2.6,0,3.5c1,1,2.6,1,3.5,0c2.1-2.1,8.9-7.6,14.9-7.6c7.2,0,14.8,7.5,14.9,7.6
			c0.4,0.4,9.2,9.1,18.4,9.1c9.3,0,18.1-8.7,18.4-9.1c1-1,1-2.6,0-3.5C103.6,69,102.1,69,101.1,70z"/>
		<path fill="#FFFFFF" d="M38,56.8c2.1-2.1,8.9-7.6,14.9-7.6c7.2,0,14.8,7.5,14.9,7.6c0.4,0.4,9.2,9.1,18.4,9.1
			c9.3,0,18.1-8.7,18.4-9.1c1-1,1-2.6,0-3.5c-1-1-2.6-1-3.5,0c-2.1,2.1-8.9,7.6-14.9,7.6c-7.2,0-14.8-7.5-14.9-7.6
			c-0.4-0.4-9.2-9.1-18.4-9.1c-9.3,0-18.1,8.7-18.4,9.1c-1,1-1,2.6,0,3.5C35.4,57.8,37,57.8,38,56.8z"/>
		<path fill="#FFFFFF" d="M69.6,6c-35.3,0-64,28.7-64,64c0,35.3,28.7,64,64,64c35.3,0,64-28.7,64-64C133.6,34.7,104.9,6,69.6,6z
			 M69.6,129c-32.5,0-59-26.5-59-59c0-32.5,26.5-59,59-59c32.5,0,59,26.5,59,59C128.6,102.5,102.1,129,69.6,129z"/>
	</g>
</g>
<g id="écran_aléas">
</g>
</svg>
