<?xml version="1.0" encoding="utf-8"?>
<!-- Generator: Adobe Illustrator 17.1.0, SVG Export Plug-In . SVG Version: 6.00 Build 0)  -->
<!DOCTYPE svg PUBLIC "-//W3C//DTD SVG 1.1//EN" "http://www.w3.org/Graphics/SVG/1.1/DTD/svg11.dtd">
<svg version="1.1" xmlns="http://www.w3.org/2000/svg" xmlns:xlink="http://www.w3.org/1999/xlink" x="0px" y="0px"
	 viewBox="0 0 178.4 236.8" enable-background="new 0 0 178.4 236.8" xml:space="preserve">
<g id="Calque_1">
</g>
<g id="Calque_2" display="none">
</g>
<g id="Calque_5" display="none">
</g>
<g id="Calque_6">
</g>
<g id="repères">
</g>
<g id="numéro_x2F_lettres">
</g>
<g id="pions">
</g>
<g id="écran_aléas">
	<g>
		<path fill="#76C8EF" d="M89.1,119.7c-6.1,0-6.3,6.2-6.3,6.2l-0.1,0l-8,91.8c-0.1,1.1,0.3,2.4,1,3.2c0.7,0.8,1.8,1.5,2.9,1.5h20.7
			c1.1,0,2.1-0.7,2.9-1.5c0.7-0.8,1.1-2,1-3.1L95,124.5C94.5,122.6,93.2,119.7,89.1,119.7z M82.8,214.4l6.1-69.5l6.1,69.5H82.8z"/>
		<path fill="#76C8EF" d="M166.1,134.2c-35-31.6-56.6-39-67.9-40.1c4-11.3,6.4-33.9-4.8-77.2c-0.5-1.7-2-2.9-3.8-2.9
			c-1.8,0-3.3,1.2-3.8,2.9C74.6,60.3,77,82.8,81,94.1c-11.2,1.1-32.9,8.5-67.9,40.1c-1.3,1.2-1.7,3.1-0.8,4.7c0.7,1.3,2,2.1,3.5,2.1
			c0.3,0,0.6,0,0.9-0.1c48.4-11.1,66.3-25.4,73-34.1c6.6,8.7,24.6,23,73,34.1c0.3,0.1,0.6,0.1,0.9,0.1c1.4,0,2.8-0.8,3.5-2.1
			C167.8,137.4,167.4,135.4,166.1,134.2z M89.6,35c7.5,36.4,3.1,52.9,0,59.5C86.4,88,82.1,71.6,89.6,35z M30.9,129.2
			c29.3-23.8,46-27.3,52.8-27.5C79.4,107.5,66.9,119,30.9,129.2z M95.6,101.7c6.8,0.2,23.5,3.7,52.7,27.5
			C112.6,119,100,107.5,95.6,101.7z"/>
	</g>
</g>
</svg>
