<?xml version="1.0" encoding="utf-8"?>
<!-- Generator: Adobe Illustrator 17.1.0, SVG Export Plug-In . SVG Version: 6.00 Build 0)  -->
<!DOCTYPE svg PUBLIC "-//W3C//DTD SVG 1.1//EN" "http://www.w3.org/Graphics/SVG/1.1/DTD/svg11.dtd">
<svg version="1.1" xmlns="http://www.w3.org/2000/svg" xmlns:xlink="http://www.w3.org/1999/xlink" x="0px" y="0px"
	 viewBox="0 0 178.4 236.8" enable-background="new 0 0 178.4 236.8" xml:space="preserve">
<g id="Calque_1">
</g>
<g id="Calque_2" display="none">
</g>
<g id="Calque_5" display="none">
</g>
<g id="Calque_6">
</g>
<g id="repères">
</g>
<g id="numéro_x2F_lettres">
</g>
<g id="pions">
</g>
<g id="écran_aléas">
	<g>
		<g>
			<path fill="#FF6F72" d="M95.9,92.8c0,3.6-2.9,6.6-6.6,6.6c-3.6,0-6.6-3-6.6-6.6c0-3.7,2.9-6.6,6.6-6.6
				C92.9,86.2,95.9,89.1,95.9,92.8z"/>
		</g>
		<g>
			<path fill="#FF6F72" d="M118.4,235.1H59.9c-1.8,0-3.4-1.1-4.1-2.7c-0.7-1.7-0.3-3.6,1-4.8c0.3-0.3,13-12.6,26.7-30.4
				c-15.6-21.4-31-49.2-31-75.4c0-53,33.1-65,34.5-65.5c0.7-0.2,1.4-0.3,2-0.2c0.7-0.1,1.3,0,2,0.2c1.4,0.5,34.5,12.5,34.5,65.5
				c0,26.2-15.4,54-31,75.4c13.7,17.9,26.5,30.2,26.7,30.4c1.3,1.2,1.7,3.1,1,4.8C121.8,234,120.2,235.1,118.4,235.1z M70.4,226.4
				H108c-4.9-5.2-11.7-12.8-18.8-21.9C82.1,213.6,75.3,221.2,70.4,226.4z M89.2,64.9c-4.8,2.1-27.7,14.4-27.7,56.9
				c0,22.9,13.5,47.9,27.7,67.9c14.2-20,27.8-45,27.8-67.9C116.9,79.5,93.9,67,89.2,64.9z"/>
		</g>
		<g>
			<path fill="#FF6F72" d="M90.2,127.2c-20,0-33.7-6.8-34.6-7.2l3.9-7.8c0.3,0.1,28.7,13.9,61.8-0.1l3.4,8.1
				C112.2,125.4,100.4,127.2,90.2,127.2z"/>
		</g>
		<g>
			<path fill="#FF6F72" d="M112,85.6c-1.1,0-2.1-0.4-3-1.2c-1.8-1.6-1.9-4.4-0.2-6.2c4.7-5,7.3-11.6,7.3-18.5c0-2.4,2-4.4,4.4-4.4
				c2.4,0,4.4,2,4.4,4.4c0,9.1-3.4,17.8-9.6,24.4C114.3,85.2,113.1,85.6,112,85.6z"/>
		</g>
		<g>
			<path fill="#FF6F72" d="M66.2,86c-1.2,0-2.3-0.4-3.2-1.3c-6.5-6.7-10-15.5-10-24.9C53,49,57.8,39,66.1,32.1
				c0.1,0,0.1-0.1,0.2-0.1C83.5,19.3,84.5,6.3,84.5,5.8c0.2-2.4,2.2-4.2,4.6-4.1c2.4,0.1,4.2,2.1,4.1,4.5c0,0.7-1,17.4-21.7,32.7
				c-6.2,5.2-9.8,12.8-9.8,20.9c0,7,2.7,13.7,7.6,18.8c1.7,1.7,1.6,4.5-0.1,6.2C68.4,85.6,67.3,86,66.2,86z"/>
		</g>
	</g>
</g>
</svg>
