<?xml version="1.0" encoding="utf-8"?>
<!-- Generator: Adobe Illustrator 17.1.0, SVG Export Plug-In . SVG Version: 6.00 Build 0)  -->
<!DOCTYPE svg PUBLIC "-//W3C//DTD SVG 1.1//EN" "http://www.w3.org/Graphics/SVG/1.1/DTD/svg11.dtd">
<svg version="1.1" xmlns="http://www.w3.org/2000/svg" xmlns:xlink="http://www.w3.org/1999/xlink" x="0px" y="0px"
	 viewBox="0 0 140 140" enable-background="new 0 0 140 140" xml:space="preserve">
<g id="Calque_1">
</g>
<g id="Calque_2" display="none">
</g>
<g id="Calque_5" display="none">
</g>
<g id="Calque_6">
</g>
<g id="repères">
</g>
<g id="numéro_x2F_lettres">
</g>
<g id="pions">
	<g>
		<g>
			<path fill="#FF6F72" d="M41.1,61.5h6.4c0.6-3.8,1.6-7.3,2.9-10.3c1.4-3.1,3.1-5.7,5.1-7.9c2-2.2,4.4-3.8,7.1-5s5.6-1.7,8.7-1.7
				c3.9,0,7.2,0.8,10,2.3c2.8,1.5,5.2,3.6,7.2,6.3L86,48.3c-0.2,0.3-0.5,0.5-0.7,0.7c-0.2,0.2-0.6,0.3-1,0.3c-0.5,0-1-0.3-1.5-0.9
				c-0.5-0.6-1.3-1.2-2.2-1.9s-2.1-1.3-3.5-1.9c-1.4-0.6-3.2-0.9-5.4-0.9c-4.2,0-7.8,1.5-10.6,4.5c-2.8,3-4.7,7.4-5.6,13.3h23.9V64
				c0,0.5-0.2,1-0.6,1.5c-0.4,0.4-0.9,0.7-1.6,0.7H55c0,0.6-0.1,1.2-0.1,1.8s0,1.2,0,1.9c0,0.5,0,1,0,1.4c0,0.5,0,0.9,0,1.4h20.4
				v2.5c0,0.5-0.2,1-0.6,1.4c-0.4,0.4-1,0.7-1.7,0.7H55.4c0.8,6.2,2.6,10.9,5.4,14c2.8,3.1,6.3,4.7,10.6,4.7c1.6,0,3-0.2,4.1-0.5
				c1.2-0.3,2.2-0.7,3.1-1.2c0.9-0.5,1.6-1,2.2-1.6c0.6-0.6,1.2-1.1,1.6-1.6c0.5-0.5,0.9-0.9,1.2-1.2s0.7-0.5,1.1-0.5
				c0.2,0,0.4,0.1,0.6,0.2c0.2,0.1,0.4,0.3,0.6,0.5l3.3,3.2c-2,3.1-4.6,5.5-7.6,7.2c-3,1.7-6.6,2.6-10.8,2.6c-3.4,0-6.4-0.6-9.1-1.8
				c-2.7-1.2-5-2.9-7-5.1c-2-2.2-3.6-4.9-4.9-8.1c-1.3-3.2-2.1-6.8-2.6-10.7h-6.2v-4.6H47c0-0.5,0-0.9,0-1.4c0-0.5,0-0.9,0-1.4
				c0-0.6,0-1.2,0-1.8c0-0.6,0-1.2,0.1-1.8h-5.9V61.5z"/>
		</g>
		<path fill="#FF6F72" d="M70,136.8c-36.8,0-66.7-29.9-66.7-66.7C3.3,33.3,33.2,3.4,70,3.4c36.8,0,66.7,29.9,66.7,66.7
			C136.7,106.9,106.8,136.8,70,136.8z M70,8.4C36,8.4,8.3,36.1,8.3,70.1c0,34,27.7,61.7,61.7,61.7c34,0,61.7-27.7,61.7-61.7
			C131.7,36.1,104,8.4,70,8.4z"/>
	</g>
</g>
<g id="écran_aléas">
</g>
</svg>
